<svg width="5212" height="2552" xmlns="http://www.w3.org/2000/svg" xmlns:xlink="http://www.w3.org/1999/xlink" xml:space="preserve" overflow="hidden"><defs><linearGradient x1="1869.21" y1="1755.43" x2="1782.45" y2="1558" gradientUnits="userSpaceOnUse" spreadMethod="reflect" id="fill0"><stop offset="0" stop-color="#B6C7EA"/><stop offset="0.77" stop-color="#517BCE"/><stop offset="1" stop-color="#254380"/></linearGradient><linearGradient x1="65.2036" y1="-34.9344" x2="151.737" y2="139.31" gradientUnits="userSpaceOnUse" spreadMethod="reflect" id="fill1"><stop offset="0" stop-color="#F8CDAC"/><stop offset="0.34" stop-color="#F5B482"/><stop offset="0.61" stop-color="#BD7A47"/><stop offset="1" stop-color="#843F0B"/></linearGradient></defs><g transform="translate(-16 -562)"><path d="M1240 996.844 1379.49 996.844 1379.49 1007.16 1240 1007.16ZM1374.33 986.532 1405.27 1002 1374.33 1017.47Z"/><path d="M1237 1541.84 1379.75 1541.84 1379.75 1552.16 1237 1552.16ZM1374.59 1531.53 1405.53 1547 1374.59 1562.47Z"/><path d="M523 996.844 673.119 996.844 673.119 1007.16 523 1007.16ZM667.962 986.532 698.9 1002 667.962 1017.47Z"/><path d="M523 1541.84 673.119 1541.84 673.119 1552.16 523 1552.16ZM667.962 1531.53 698.9 1547 667.962 1562.47Z"/><rect x="1405" y="1911" width="1453" height="269" stroke="#000000" stroke-width="10.3125" stroke-miterlimit="8" fill="#F2F2F2"/><rect x="247" y="738" width="342" height="1082" stroke="#000000" stroke-width="10.3125" stroke-miterlimit="8" fill="#ADB9CA"/><text font-family="Times New Roman,Times New Roman_MSFontService,sans-serif" font-weight="400" font-size="83" transform="matrix(1 0 0 1 291.636 1287)">Session </text><text font-family="Times New Roman,Times New Roman_MSFontService,sans-serif" font-weight="400" font-size="83" transform="matrix(1 0 0 1 319.32 1386)">Video</text><rect x="1405" y="738" width="1453" height="1082" stroke="#000000" stroke-width="10.3125" stroke-miterlimit="8" fill="#F2F2F2"/><text font-family="Times New Roman,Times New Roman_MSFontService,sans-serif" font-weight="400" font-size="83" transform="matrix(1 0 0 1 1441.76 846)">Spatial</text><text font-family="Times New Roman,Times New Roman_MSFontService,sans-serif" font-weight="400" font-size="83" transform="matrix(1 0 0 1 1670.93 846)">-</text><text font-family="Times New Roman,Times New Roman_MSFontService,sans-serif" font-weight="400" font-size="83" transform="matrix(1 0 0 1 1698.43 846)">Temporal </text><text font-family="Times New Roman,Times New Roman_MSFontService,sans-serif" font-weight="400" font-size="83" transform="matrix(1 0 0 1 2034.13 846)">Child</text><text font-family="Times New Roman,Times New Roman_MSFontService,sans-serif" font-weight="400" font-size="83" transform="matrix(1 0 0 1 2217.47 846)">-</text><text font-family="Times New Roman,Times New Roman_MSFontService,sans-serif" font-weight="400" font-size="83" transform="matrix(1 0 0 1 2244.97 846)">Carer Interaction </text><text font-family="Times New Roman,Times New Roman_MSFontService,sans-serif" font-weight="400" font-size="83" transform="matrix(1 0 0 1 1727.65 945)">Body Movement Model</text><rect x="1165" y="738" width="115" height="1082" stroke="#000000" stroke-width="10.3125" stroke-miterlimit="8" fill="#F8F1E7"/><text font-family="Times New Roman,Times New Roman_MSFontService,sans-serif" font-weight="400" font-size="83" transform="matrix(6.12323e-17 1 -1 6.12323e-17 1194.1 1003)">Noise Reduction</text><rect x="4192" y="738" width="113" height="1450" stroke="#000000" stroke-width="10.3125" stroke-miterlimit="8" fill="#F2F2F2"/><text font-family="Times New Roman,Times New Roman_MSFontService,sans-serif" font-weight="400" font-size="83" transform="matrix(6.12323e-17 1 -1 6.12323e-17 4219.84 1111)">Temporal Integration</text><rect x="247" y="1916" width="342" height="269" stroke="#000000" stroke-width="10.3125" stroke-miterlimit="8" fill="#ADB9CA"/><text font-family="Times New Roman,Times New Roman_MSFontService,sans-serif" font-weight="400" font-size="83" transform="matrix(1 0 0 1 291.636 2023)">Session</text><text font-family="Times New Roman,Times New Roman_MSFontService,sans-serif" font-weight="400" font-size="83" transform="matrix(1 0 0 1 314.553 2122)">Audio</text><path d="M589.013 2037.84 1379.7 2039.9 1379.67 2050.21 588.986 2048.16ZM1374.57 2029.57 1405.46 2045.12 1374.49 2060.51Z"/><text font-family="Times New Roman,Times New Roman_MSFontService,sans-serif" font-weight="400" font-size="83" transform="matrix(1 0 0 1 1878.26 2080)">Audio Features</text><path d="M2858.02 2039.84 3923.18 2044.87 3923.13 2055.18 2857.98 2050.16ZM3918.07 2034.53 3948.94 2050.15 3917.93 2065.47Z"/><rect x="4457" y="740" width="115" height="1445" stroke="#000000" stroke-width="10.3125" stroke-miterlimit="8" fill="#C8E5B3"/><text font-family="Times New Roman,Times New Roman_MSFontService,sans-serif" font-weight="400" font-size="83" transform="matrix(6.12323e-17 1 -1 6.12323e-17 4486.1 1293)">Prediction</text><path d="M0.0210242-5.15621 126.564-4.64023 126.522 5.67218-0.0210242 5.15621ZM121.45-14.9737 152.324 0.621096 121.324 15.9636Z" transform="matrix(1 0 0 -1 4305 1462.62)"/><path d="M1.55994e-05-5.15625 93.5089-5.15597 93.5088 5.15653-1.55994e-05 5.15625ZM88.3526-15.4685 119.29 0.000360892 88.3525 15.469Z" transform="matrix(1 0 0 -1 4572 1462)"/><text font-family="Times New Roman,Times New Roman_MSFontService,sans-serif" font-weight="400" font-size="83" transform="matrix(1 0 0 1 280.481 2571)">Play</text><text font-family="Times New Roman,Times New Roman_MSFontService,sans-serif" font-weight="400" font-size="83" transform="matrix(1 0 0 1 447.773 2571)">Session</text><text font-family="Times New Roman,Times New Roman_MSFontService,sans-serif" font-weight="400" font-size="83" transform="matrix(1 0 0 1 718.992 2571)">Video/Audio</text><text font-family="Times New Roman,Times New Roman_MSFontService,sans-serif" font-weight="400" font-size="83" transform="matrix(1 0 0 1 213.791 2828)">Lunch</text><text font-family="Times New Roman,Times New Roman_MSFontService,sans-serif" font-weight="400" font-size="83" transform="matrix(1 0 0 1 445.249 2828)">Session</text><text font-family="Times New Roman,Times New Roman_MSFontService,sans-serif" font-weight="400" font-size="83" transform="matrix(1 0 0 1 716.468 2828)">Video/Audio</text><rect x="1398" y="2448" width="1460" height="425" stroke="#000000" stroke-width="10.3125" stroke-miterlimit="8" fill="#F2F2F2"/><text font-family="Times New Roman,Times New Roman_MSFontService,sans-serif" font-weight="400" font-size="83" transform="matrix(1 -2.44929e-16 2.44929e-16 1 1545.71 2689)">Child</text><text font-family="Times New Roman,Times New Roman_MSFontService,sans-serif" font-weight="400" font-size="83" transform="matrix(1 -2.44929e-16 2.44929e-16 1 1729.04 2689)">–</text><text font-family="Times New Roman,Times New Roman_MSFontService,sans-serif" font-weight="400" font-size="83" transform="matrix(1 -2.44929e-16 2.44929e-16 1 1770.29 2689)">Caregiver Interaction Model</text><rect x="1398" y="2934" width="1460" height="159" stroke="#000000" stroke-width="10.3125" stroke-miterlimit="8" fill="#F2F2F2"/><text font-family="Times New Roman,Times New Roman_MSFontService,sans-serif" font-weight="400" font-size="83" transform="matrix(1 -2.44929e-16 2.44929e-16 1 1531.96 3042)">Child</text><text font-family="Times New Roman,Times New Roman_MSFontService,sans-serif" font-weight="400" font-size="83" transform="matrix(1 -2.44929e-16 2.44929e-16 1 1715.29 3042)">-</text><text font-family="Times New Roman,Times New Roman_MSFontService,sans-serif" font-weight="400" font-size="83" transform="matrix(1 -2.44929e-16 2.44929e-16 1 1742.79 3042)">Researcher</text><text font-family="Times New Roman,Times New Roman_MSFontService,sans-serif" font-weight="400" font-size="83" transform="matrix(1 -2.44929e-16 2.44929e-16 1 2130.08 3042)">Interaction Model</text><rect x="3957" y="2450" width="353" height="646" stroke="#000000" stroke-width="10.3125" stroke-miterlimit="8" fill="#F2F2F2"/><text font-family="Times New Roman,Times New Roman_MSFontService,sans-serif" font-weight="400" font-size="83" transform="matrix(6.12323e-17 1 -1 6.12323e-17 4154.61 2647)">Session </text><text font-family="Times New Roman,Times New Roman_MSFontService,sans-serif" font-weight="400" font-size="83" transform="matrix(6.12323e-17 1 -1 6.12323e-17 4055.61 2592)">Integration</text><path d="M4.24725e-05-5.15625 193.284-5.15466 193.284 5.15784-4.24725e-05 5.15625ZM188.128-15.4672 219.065 0.00180446 188.128 15.4703Z" transform="matrix(1 0 0 -1 1179 2541)"/><path d="M3807.02 2525.84 3930.52 2526.2 3930.49 2536.52 3806.98 2536.16ZM3925.39 2515.88 3956.29 2531.43 3925.3 2546.81Z"/><rect x="4462" y="2450" width="113" height="645" stroke="#000000" stroke-width="10.3125" stroke-miterlimit="8" fill="#C8E5B3"/><text font-family="Times New Roman,Times New Roman_MSFontService,sans-serif" font-weight="400" font-size="83" transform="matrix(6.12323e-17 1 -1 6.12323e-17 4490.26 2603)">Prediction</text><path d="M0.0388032-5.1561 126.515-4.20429 126.437 6.10792-0.0388032 5.1561ZM121.436-14.5553 152.257 1.14583 121.203 16.3813Z" transform="matrix(1 0 0 -1 4310 2773.15)"/><path d="M796.511 737.077 887.562 718.302 907.245 813.752 816.194 832.528Z" stroke="#D6EDFF" stroke-width="4.58333" stroke-miterlimit="8" fill="none" fill-rule="evenodd"/><path d="M845.5 828.5C845.5 822.977 849.977 818.5 855.5 818.5 861.023 818.5 865.5 822.977 865.5 828.5 865.5 834.023 861.023 838.5 855.5 838.5 849.977 838.5 845.5 834.023 845.5 828.5Z" stroke="#0075B0" stroke-width="4.58333" stroke-miterlimit="8" fill="#0075B0" fill-rule="evenodd"/><path d="M785.5 867.5C785.5 861.977 789.977 857.5 795.5 857.5 801.023 857.5 805.5 861.977 805.5 867.5 805.5 873.023 801.023 877.5 795.5 877.5 789.977 877.5 785.5 873.023 785.5 867.5Z" stroke="#0075B0" stroke-width="4.58333" stroke-miterlimit="8" fill="#0075B0" fill-rule="evenodd"/><path d="M883.5 865.5C883.5 859.977 887.753 855.5 893 855.5 898.247 855.5 902.5 859.977 902.5 865.5 902.5 871.023 898.247 875.5 893 875.5 887.753 875.5 883.5 871.023 883.5 865.5Z" stroke="#0075B0" stroke-width="4.58333" stroke-miterlimit="8" fill="#0075B0" fill-rule="evenodd"/><path d="M749.5 961.5C749.5 955.977 753.977 951.5 759.5 951.5 765.023 951.5 769.5 955.977 769.5 961.5 769.5 967.023 765.023 971.5 759.5 971.5 753.977 971.5 749.5 967.023 749.5 961.5Z" stroke="#0075B0" stroke-width="4.58333" stroke-miterlimit="8" fill="#0075B0" fill-rule="evenodd"/><path d="M911.5 963.5C911.5 957.977 915.977 953.5 921.5 953.5 927.023 953.5 931.5 957.977 931.5 963.5 931.5 969.023 927.023 973.5 921.5 973.5 915.977 973.5 911.5 969.023 911.5 963.5Z" stroke="#0075B0" stroke-width="4.58333" stroke-miterlimit="8" fill="#0075B0" fill-rule="evenodd"/><path d="M914.5 912.5C914.5 906.977 918.753 902.5 924 902.5 929.247 902.5 933.5 906.977 933.5 912.5 933.5 918.023 929.247 922.5 924 922.5 918.753 922.5 914.5 918.023 914.5 912.5Z" stroke="#0075B0" stroke-width="4.58333" stroke-miterlimit="8" fill="#0075B0" fill-rule="evenodd"/><path d="M1004.5 868.5C1004.5 862.977 1008.98 858.5 1014.5 858.5 1020.02 858.5 1024.5 862.977 1024.5 868.5 1024.5 874.023 1020.02 878.5 1014.5 878.5 1008.98 878.5 1004.5 874.023 1004.5 868.5Z" stroke="#0075B0" stroke-width="4.58333" stroke-miterlimit="8" fill="#0075B0" fill-rule="evenodd"/><path d="M834.5 732.5C834.5 726.977 838.977 722.5 844.5 722.5 850.023 722.5 854.5 726.977 854.5 732.5 854.5 738.023 850.023 742.5 844.5 742.5 838.977 742.5 834.5 738.023 834.5 732.5Z" stroke="#0075B0" stroke-width="4.58333" stroke-miterlimit="8" fill="#0075B0" fill-rule="evenodd"/><path d="M838.5 1010.5C838.5 1004.98 842.977 1000.5 848.5 1000.5 854.023 1000.5 858.5 1004.98 858.5 1010.5 858.5 1016.02 854.023 1020.5 848.5 1020.5 842.977 1020.5 838.5 1016.02 838.5 1010.5Z" stroke="#0075B0" stroke-width="4.58333" stroke-miterlimit="8" fill="#0075B0" fill-rule="evenodd"/><path d="M788.5 1056.5C788.5 1050.98 792.977 1046.5 798.5 1046.5 804.023 1046.5 808.5 1050.98 808.5 1056.5 808.5 1062.02 804.023 1066.5 798.5 1066.5 792.977 1066.5 788.5 1062.02 788.5 1056.5Z" stroke="#0075B0" stroke-width="4.58333" stroke-miterlimit="8" fill="#0075B0" fill-rule="evenodd"/><path d="M885.5 1031.5C885.5 1025.98 889.977 1021.5 895.5 1021.5 901.023 1021.5 905.5 1025.98 905.5 1031.5 905.5 1037.02 901.023 1041.5 895.5 1041.5 889.977 1041.5 885.5 1037.02 885.5 1031.5Z" stroke="#0075B0" stroke-width="4.58333" stroke-miterlimit="8" fill="#0075B0" fill-rule="evenodd"/><path d="M942.5 1074.5C942.5 1068.98 946.977 1064.5 952.5 1064.5 958.023 1064.5 962.5 1068.98 962.5 1074.5 962.5 1080.02 958.023 1084.5 952.5 1084.5 946.977 1084.5 942.5 1080.02 942.5 1074.5Z" stroke="#0075B0" stroke-width="4.58333" stroke-miterlimit="8" fill="#0075B0" fill-rule="evenodd"/><path d="M985.5 1059.5C985.5 1053.98 989.977 1049.5 995.5 1049.5 1001.02 1049.5 1005.5 1053.98 1005.5 1059.5 1005.5 1065.02 1001.02 1069.5 995.5 1069.5 989.977 1069.5 985.5 1065.02 985.5 1059.5Z" stroke="#0075B0" stroke-width="4.58333" stroke-miterlimit="8" fill="#0075B0" fill-rule="evenodd"/><path d="M946.5 1234.5C946.5 1228.98 950.977 1224.5 956.5 1224.5 962.023 1224.5 966.5 1228.98 966.5 1234.5 966.5 1240.02 962.023 1244.5 956.5 1244.5 950.977 1244.5 946.5 1240.02 946.5 1234.5Z" stroke="#0075B0" stroke-width="4.58333" stroke-miterlimit="8" fill="#0075B0" fill-rule="evenodd"/><path d="M1005.5 1234.5C1005.5 1228.98 1009.98 1224.5 1015.5 1224.5 1021.02 1224.5 1025.5 1228.98 1025.5 1234.5 1025.5 1240.02 1021.02 1244.5 1015.5 1244.5 1009.98 1244.5 1005.5 1240.02 1005.5 1234.5Z" stroke="#0075B0" stroke-width="4.58333" stroke-miterlimit="8" fill="#0075B0" fill-rule="evenodd"/><path d="M0 0 6.65955 26.1586" stroke="#003865" stroke-width="4.58333" stroke-miterlimit="8" fill="none" fill-rule="evenodd" transform="matrix(-1 0 0 1 845.159 742.5)"/><path d="M0 0 46.4339 24.8503" stroke="#003865" stroke-width="4.58333" stroke-miterlimit="8" fill="none" fill-rule="evenodd" transform="matrix(-1 0 0 1 848.934 835.5)"/><path d="M862.5 835.5 885.712 858.354" stroke="#003865" stroke-width="4.58333" stroke-miterlimit="8" fill="none" fill-rule="evenodd"/><path d="M0 0 29.085 77.1797" stroke="#003865" stroke-width="4.58333" stroke-miterlimit="8" fill="none" fill-rule="evenodd" transform="matrix(-1 0 0 1 788.585 874.5)"/><path d="M900.5 872.5 917.419 905.6" stroke="#003865" stroke-width="4.58333" stroke-miterlimit="8" fill="none" fill-rule="evenodd"/><path d="M911.58 963.22 769.5 961.5" stroke="#003865" stroke-width="4.58333" stroke-miterlimit="8" fill="none" fill-rule="evenodd"/><path d="M798.991 1046.74 795.5 877.5" stroke="#003865" stroke-width="4.58333" stroke-miterlimit="8" fill="none" fill-rule="evenodd"/><path d="M895.328 1021.13 892.5 875.5" stroke="#003865" stroke-width="4.58333" stroke-miterlimit="8" fill="none" fill-rule="evenodd"/><path d="M0 0 7.61699 161.922" stroke="#003865" stroke-width="4.58333" stroke-miterlimit="8" fill="none" fill-rule="evenodd" transform="matrix(1 0 0 -1 848.5 1000.42)"/><path d="M0 0 35.326 32.1649" stroke="#003865" stroke-width="4.58333" stroke-miterlimit="8" fill="none" fill-rule="evenodd" transform="matrix(1 0 0 -1 805.5 1049.66)"/><path d="M889.158 1024.06 855.5 1017.5" stroke="#003865" stroke-width="4.58333" stroke-miterlimit="8" fill="none" fill-rule="evenodd"/><path d="M0 0 73.8794 37.2224" stroke="#003865" stroke-width="4.58333" stroke-miterlimit="8" fill="none" fill-rule="evenodd" transform="matrix(-1 0 0 1 1007.38 875.5)"/><path d="M808.5 1056.5 942.424 1074.11" stroke="#003865" stroke-width="4.58333" stroke-miterlimit="8" fill="none" fill-rule="evenodd"/><path d="M956.293 1224.91 952.5 1084.5" stroke="#003865" stroke-width="4.58333" stroke-miterlimit="8" fill="none" fill-rule="evenodd"/><path d="M905.5 1031.5 985.229 1059.62" stroke="#003865" stroke-width="4.58333" stroke-miterlimit="8" fill="none" fill-rule="evenodd"/><path d="M995.5 1069.5 1015.41 1225.01" stroke="#003865" stroke-width="4.58333" stroke-miterlimit="8" fill="none" fill-rule="evenodd"/><path d="M844.5 775C844.5 778.59 841.59 781.5 838 781.5 834.41 781.5 831.5 778.59 831.5 775 831.5 771.41 834.41 768.5 838 768.5 841.59 768.5 844.5 771.41 844.5 775Z" stroke="#0075B0" stroke-width="4.58333" stroke-miterlimit="8" fill="#0075B0" fill-rule="evenodd"/><path d="M878.5 769C878.5 772.59 875.59 775.5 872 775.5 868.41 775.5 865.5 772.59 865.5 769 865.5 765.41 868.41 762.5 872 762.5 875.59 762.5 878.5 765.41 878.5 769Z" stroke="#0075B0" stroke-width="4.58333" stroke-miterlimit="8" fill="#0075B0" fill-rule="evenodd"/><path d="M905.5 785C905.5 788.59 902.59 791.5 899 791.5 895.41 791.5 892.5 788.59 892.5 785 892.5 781.41 895.41 778.5 899 778.5 902.59 778.5 905.5 781.41 905.5 785Z" stroke="#0075B0" stroke-width="4.58333" stroke-miterlimit="8" fill="#0075B0" fill-rule="evenodd"/><path d="M862.5 792C862.5 795.59 859.59 798.5 856 798.5 852.41 798.5 849.5 795.59 849.5 792 849.5 788.41 852.41 785.5 856 785.5 859.59 785.5 862.5 788.41 862.5 792Z" stroke="#0075B0" stroke-width="4.58333" stroke-miterlimit="8" fill="#0075B0" fill-rule="evenodd"/><path d="M815.5 798C815.5 801.59 812.59 804.5 809 804.5 805.41 804.5 802.5 801.59 802.5 798 802.5 794.41 805.41 791.5 809 791.5 812.59 791.5 815.5 794.41 815.5 798Z" stroke="#0075B0" stroke-width="4.58333" stroke-miterlimit="8" fill="#0075B0" fill-rule="evenodd"/><path d="M0 0 20.219 13.9081" stroke="#003865" stroke-width="4.58333" stroke-miterlimit="8" fill="none" fill-rule="evenodd" transform="matrix(-1 0 0 1 833.719 779.5)"/><path d="M842.5 779.5 850.892 787.845" stroke="#003865" stroke-width="4.58333" stroke-miterlimit="8" fill="none" fill-rule="evenodd"/><path d="M0 0 6.74508 13.6457" stroke="#003865" stroke-width="4.58333" stroke-miterlimit="8" fill="none" fill-rule="evenodd" transform="matrix(-1 0 0 1 867.245 773.5)"/><path d="M876.5 773.5 894.945 780.108" stroke="#003865" stroke-width="4.58333" stroke-miterlimit="8" fill="none" fill-rule="evenodd"/><path d="M0 0 0.0093832 20.0685" stroke="#003865" stroke-width="4.58333" stroke-miterlimit="8" fill="none" fill-rule="evenodd" transform="matrix(-1 0 0 1 855.509 798.5)"/><path d="M844.5 742.5 866.758 765.261" stroke="#003865" stroke-width="4.58333" stroke-miterlimit="8" fill="none" fill-rule="evenodd"/><path d="M864.662 1388 948.667 1398.19 937.466 1490.53 853.461 1480.34Z" stroke="#FFD9BF" stroke-width="4.58333" stroke-miterlimit="8" fill="none" fill-rule="evenodd"/><path d="M754.5 1502.5C754.5 1496.98 758.977 1492.5 764.5 1492.5 770.023 1492.5 774.5 1496.98 774.5 1502.5 774.5 1508.02 770.023 1512.5 764.5 1512.5 758.977 1512.5 754.5 1508.02 754.5 1502.5Z" stroke="#FF8D3F" stroke-width="4.58333" stroke-miterlimit="8" fill="#FF8D3F" fill-rule="evenodd"/><path d="M800.5 1540.5C800.5 1534.98 804.977 1530.5 810.5 1530.5 816.023 1530.5 820.5 1534.98 820.5 1540.5 820.5 1546.02 816.023 1550.5 810.5 1550.5 804.977 1550.5 800.5 1546.02 800.5 1540.5Z" stroke="#FF8D3F" stroke-width="4.58333" stroke-miterlimit="8" fill="#FF8D3F" fill-rule="evenodd"/><path d="M854.5 1509C854.5 1503.75 858.977 1499.5 864.5 1499.5 870.023 1499.5 874.5 1503.75 874.5 1509 874.5 1514.25 870.023 1518.5 864.5 1518.5 858.977 1518.5 854.5 1514.25 854.5 1509Z" stroke="#FF8D3F" stroke-width="4.58333" stroke-miterlimit="8" fill="#FF8D3F" fill-rule="evenodd"/><path d="M884.5 1490.5C884.5 1484.98 888.977 1480.5 894.5 1480.5 900.023 1480.5 904.5 1484.98 904.5 1490.5 904.5 1496.02 900.023 1500.5 894.5 1500.5 888.977 1500.5 884.5 1496.02 884.5 1490.5Z" stroke="#FF8D3F" stroke-width="4.58333" stroke-miterlimit="8" fill="#FF8D3F" fill-rule="evenodd"/><path d="M924.5 1502.5C924.5 1496.98 928.977 1492.5 934.5 1492.5 940.023 1492.5 944.5 1496.98 944.5 1502.5 944.5 1508.02 940.023 1512.5 934.5 1512.5 928.977 1512.5 924.5 1508.02 924.5 1502.5Z" stroke="#FF8D3F" stroke-width="4.58333" stroke-miterlimit="8" fill="#FF8D3F" fill-rule="evenodd"/><path d="M853.5 1606.5C853.5 1600.98 857.977 1596.5 863.5 1596.5 869.023 1596.5 873.5 1600.98 873.5 1606.5 873.5 1612.02 869.023 1616.5 863.5 1616.5 857.977 1616.5 853.5 1612.02 853.5 1606.5Z" stroke="#FF8D3F" stroke-width="4.58333" stroke-miterlimit="8" fill="#FF8D3F" fill-rule="evenodd"/><path d="M890.5 1589.5C890.5 1583.98 894.977 1579.5 900.5 1579.5 906.023 1579.5 910.5 1583.98 910.5 1589.5 910.5 1595.02 906.023 1599.5 900.5 1599.5 894.977 1599.5 890.5 1595.02 890.5 1589.5Z" stroke="#FF8D3F" stroke-width="4.58333" stroke-miterlimit="8" fill="#FF8D3F" fill-rule="evenodd"/><path d="M924.5 1606.5C924.5 1600.98 928.977 1596.5 934.5 1596.5 940.023 1596.5 944.5 1600.98 944.5 1606.5 944.5 1612.02 940.023 1616.5 934.5 1616.5 928.977 1616.5 924.5 1612.02 924.5 1606.5Z" stroke="#FF8D3F" stroke-width="4.58333" stroke-miterlimit="8" fill="#FF8D3F" fill-rule="evenodd"/><path d="M856.5 1672.5C856.5 1666.98 860.977 1662.5 866.5 1662.5 872.023 1662.5 876.5 1666.98 876.5 1672.5 876.5 1678.02 872.023 1682.5 866.5 1682.5 860.977 1682.5 856.5 1678.02 856.5 1672.5Z" stroke="#FF8D3F" stroke-width="4.58333" stroke-miterlimit="8" fill="#FF8D3F" fill-rule="evenodd"/><path d="M876.5 1737.5C876.5 1731.98 880.977 1727.5 886.5 1727.5 892.023 1727.5 896.5 1731.98 896.5 1737.5 896.5 1743.02 892.023 1747.5 886.5 1747.5 880.977 1747.5 876.5 1743.02 876.5 1737.5Z" stroke="#FF8D3F" stroke-width="4.58333" stroke-miterlimit="8" fill="#FF8D3F" fill-rule="evenodd"/><path d="M921.5 1669.5C921.5 1663.98 925.977 1659.5 931.5 1659.5 937.023 1659.5 941.5 1663.98 941.5 1669.5 941.5 1675.02 937.023 1679.5 931.5 1679.5 925.977 1679.5 921.5 1675.02 921.5 1669.5Z" stroke="#FF8D3F" stroke-width="4.58333" stroke-miterlimit="8" fill="#FF8D3F" fill-rule="evenodd"/><path d="M962.5 1719.5C962.5 1713.98 966.977 1709.5 972.5 1709.5 978.023 1709.5 982.5 1713.98 982.5 1719.5 982.5 1725.02 978.023 1729.5 972.5 1729.5 966.977 1729.5 962.5 1725.02 962.5 1719.5Z" stroke="#FF8D3F" stroke-width="4.58333" stroke-miterlimit="8" fill="#FF8D3F" fill-rule="evenodd"/><path d="M957.5 1549.5C957.5 1543.98 961.977 1539.5 967.5 1539.5 973.023 1539.5 977.5 1543.98 977.5 1549.5 977.5 1555.02 973.023 1559.5 967.5 1559.5 961.977 1559.5 957.5 1555.02 957.5 1549.5Z" stroke="#FF8D3F" stroke-width="4.58333" stroke-miterlimit="8" fill="#FF8D3F" fill-rule="evenodd"/><path d="M972.5 1609.5C972.5 1603.98 976.977 1599.5 982.5 1599.5 988.023 1599.5 992.5 1603.98 992.5 1609.5 992.5 1615.02 988.023 1619.5 982.5 1619.5 976.977 1619.5 972.5 1615.02 972.5 1609.5Z" stroke="#FF8D3F" stroke-width="4.58333" stroke-miterlimit="8" fill="#FF8D3F" fill-rule="evenodd"/><path d="M890.5 1433C890.5 1436.59 887.59 1439.5 884 1439.5 880.41 1439.5 877.5 1436.59 877.5 1433 877.5 1429.41 880.41 1426.5 884 1426.5 887.59 1426.5 890.5 1429.41 890.5 1433Z" stroke="#FF8D3F" stroke-width="4.58333" stroke-miterlimit="8" fill="#FF8D3F" fill-rule="evenodd"/><path d="M923.5 1436C923.5 1439.59 920.59 1442.5 917 1442.5 913.41 1442.5 910.5 1439.59 910.5 1436 910.5 1432.41 913.41 1429.5 917 1429.5 920.59 1429.5 923.5 1432.41 923.5 1436Z" stroke="#FF8D3F" stroke-width="4.58333" stroke-miterlimit="8" fill="#FF8D3F" fill-rule="evenodd"/><path d="M866.5 1448C866.5 1451.59 863.59 1454.5 860 1454.5 856.41 1454.5 853.5 1451.59 853.5 1448 853.5 1444.41 856.41 1441.5 860 1441.5 863.59 1441.5 866.5 1444.41 866.5 1448Z" stroke="#FF8D3F" stroke-width="4.58333" stroke-miterlimit="8" fill="#FF8D3F" fill-rule="evenodd"/><path d="M903.5 1457C903.5 1460.59 900.59 1463.5 897 1463.5 893.41 1463.5 890.5 1460.59 890.5 1457 890.5 1453.41 893.41 1450.5 897 1450.5 900.59 1450.5 903.5 1453.41 903.5 1457Z" stroke="#FF8D3F" stroke-width="4.58333" stroke-miterlimit="8" fill="#FF8D3F" fill-rule="evenodd"/><path d="M947.5 1457C947.5 1460.59 944.59 1463.5 941 1463.5 937.41 1463.5 934.5 1460.59 934.5 1457 934.5 1453.41 937.41 1450.5 941 1450.5 944.59 1450.5 947.5 1453.41 947.5 1457Z" stroke="#FF8D3F" stroke-width="4.58333" stroke-miterlimit="8" fill="#FF8D3F" fill-rule="evenodd"/><path d="M892.5 1391.5C892.5 1385.98 896.977 1381.5 902.5 1381.5 908.023 1381.5 912.5 1385.98 912.5 1391.5 912.5 1397.02 908.023 1401.5 902.5 1401.5 896.977 1401.5 892.5 1397.02 892.5 1391.5Z" stroke="#FF8D3F" stroke-width="4.58333" stroke-miterlimit="8" fill="#FF8D3F" fill-rule="evenodd"/><path d="M0 0 14.2498 6.94862" stroke="#8E3A00" stroke-width="4.58333" stroke-miterlimit="8" fill="none" fill-rule="evenodd" transform="matrix(-1 0 0 1 886.75 1497.5)"/><path d="M0 0 37.8125 23.5717" stroke="#8E3A00" stroke-width="4.58333" stroke-miterlimit="8" fill="none" fill-rule="evenodd" transform="matrix(-1 0 0 1 855.312 1512.5)"/><path d="M804.167 1533.04 771.5 1509.5" stroke="#8E3A00" stroke-width="4.58333" stroke-miterlimit="8" fill="none" fill-rule="evenodd"/><path d="M0 0 0.684613 77.7077" stroke="#8E3A00" stroke-width="4.58333" stroke-miterlimit="8" fill="none" fill-rule="evenodd" transform="matrix(-1 0 0 1 864.185 1518.5)"/><path d="M863.5 1616.5 866.328 1662.05" stroke="#8E3A00" stroke-width="4.58333" stroke-miterlimit="8" fill="none" fill-rule="evenodd"/><path d="M866.5 1682.5 886.406 1728.05" stroke="#8E3A00" stroke-width="4.58333" stroke-miterlimit="8" fill="none" fill-rule="evenodd"/><path d="M894.5 1500.5 900.393 1579.57" stroke="#8E3A00" stroke-width="4.58333" stroke-miterlimit="8" fill="none" fill-rule="evenodd"/><path d="M904.5 1494.5 924.518 1502.63" stroke="#8E3A00" stroke-width="4.58333" stroke-miterlimit="8" fill="none" fill-rule="evenodd"/><path d="M0 0 0.684613 83.9262" stroke="#8E3A00" stroke-width="4.58333" stroke-miterlimit="8" fill="none" fill-rule="evenodd" transform="matrix(-1 0 0 1 935.185 1512.5)"/><path d="M0 0 2.94633 43.0624" stroke="#8E3A00" stroke-width="4.58333" stroke-miterlimit="8" fill="none" fill-rule="evenodd" transform="matrix(-1 0 0 1 934.446 1616.5)"/><path d="M938.5 1676.5 965.95 1712.76" stroke="#8E3A00" stroke-width="4.58333" stroke-miterlimit="8" fill="none" fill-rule="evenodd"/><path d="M941.5 1509.5 960.31 1542.29" stroke="#8E3A00" stroke-width="4.58333" stroke-miterlimit="8" fill="none" fill-rule="evenodd"/><path d="M970.5 1558.5 983.005 1599.91" stroke="#8E3A00" stroke-width="4.58333" stroke-miterlimit="8" fill="none" fill-rule="evenodd"/><path d="M0 0 13.5854 10.6167" stroke="#8E3A00" stroke-width="4.58333" stroke-miterlimit="8" fill="none" fill-rule="evenodd" transform="matrix(-1 0 0 1 878.085 1433.5)"/><path d="M888.5 1437.5 896.296 1450.19" stroke="#8E3A00" stroke-width="4.58333" stroke-miterlimit="8" fill="none" fill-rule="evenodd"/><path d="M0 0 10.7185 12" stroke="#8E3A00" stroke-width="4.58333" stroke-miterlimit="8" fill="none" fill-rule="evenodd" transform="matrix(-1 0 0 1 912.219 1440.5)"/><path d="M921.5 1440.5 936.896 1452.16" stroke="#8E3A00" stroke-width="4.58333" stroke-miterlimit="8" fill="none" fill-rule="evenodd"/><path d="M0 0 18.3665 25.1311" stroke="#8E3A00" stroke-width="4.58333" stroke-miterlimit="8" fill="none" fill-rule="evenodd" transform="matrix(-1 0 0 1 902.867 1401.5)"/><path d="M902.5 1401.5 916.428 1429.22" stroke="#8E3A00" stroke-width="4.58333" stroke-miterlimit="8" fill="none" fill-rule="evenodd"/><path d="M0 0 2.43638 17.1687" stroke="#8E3A00" stroke-width="4.58333" stroke-miterlimit="8" fill="none" fill-rule="evenodd" transform="matrix(-1 0 0 1 896.936 1463.5)"/><path d="M0 0 19.4452 10.1194" stroke="#8E3A00" stroke-width="4.58333" stroke-miterlimit="8" fill="none" fill-rule="evenodd" transform="matrix(1 0 0 -1 873.5 1606.62)"/><path d="M924.535 1606.62 907.5 1596.5" stroke="#8E3A00" stroke-width="4.58333" stroke-miterlimit="8" fill="none" fill-rule="evenodd"/><text font-family="Times New Roman,Times New Roman_MSFontService,sans-serif" font-weight="400" font-size="83" transform="matrix(1 0 0 1 790.56 1828)">Child</text><text font-family="Times New Roman,Times New Roman_MSFontService,sans-serif" font-weight="400" font-size="83" transform="matrix(1 0 0 1 804.813 1321)">Carer</text><path d="M1061 996.844 1139.27 996.844 1139.27 1007.16 1061 1007.16ZM1134.12 986.532 1165.05 1002 1134.12 1017.47Z"/><path d="M1062 1541.84 1138.7 1541.84 1138.7 1552.16 1062 1552.16ZM1133.54 1531.53 1164.48 1547 1133.54 1562.47Z"/><path d="M2443 1302C2443 1294.82 2448.6 1289 2455.5 1289 2462.4 1289 2468 1294.82 2468 1302 2468 1309.18 2462.4 1315 2455.5 1315 2448.6 1315 2443 1309.18 2443 1302Z" fill="#FF8D3F" fill-rule="evenodd" fill-opacity="0.301961"/><path d="M2502 1350C2502 1342.82 2507.82 1337 2515 1337 2522.18 1337 2528 1342.82 2528 1350 2528 1357.18 2522.18 1363 2515 1363 2507.82 1363 2502 1357.18 2502 1350Z" fill="#FF8D3F" fill-rule="evenodd" fill-opacity="0.301961"/><path d="M2571 1310C2571 1302.82 2576.6 1297 2583.5 1297 2590.4 1297 2596 1302.82 2596 1310 2596 1317.18 2590.4 1323 2583.5 1323 2576.6 1323 2571 1317.18 2571 1310Z" fill="#FF8D3F" fill-rule="evenodd" fill-opacity="0.301961"/><path d="M2609 1286.5C2609 1279.6 2614.6 1274 2621.5 1274 2628.4 1274 2634 1279.6 2634 1286.5 2634 1293.4 2628.4 1299 2621.5 1299 2614.6 1299 2609 1293.4 2609 1286.5Z" fill="#FF8D3F" fill-rule="evenodd" fill-opacity="0.301961"/><path d="M2661 1302C2661 1294.82 2666.6 1289 2673.5 1289 2680.4 1289 2686 1294.82 2686 1302 2686 1309.18 2680.4 1315 2673.5 1315 2666.6 1315 2661 1309.18 2661 1302Z" fill="#FF8D3F" fill-rule="evenodd" fill-opacity="0.301961"/><path d="M2570 1434.5C2570 1427.6 2575.6 1422 2582.5 1422 2589.4 1422 2595 1427.6 2595 1434.5 2595 1441.4 2589.4 1447 2582.5 1447 2575.6 1447 2570 1441.4 2570 1434.5Z" fill="#FF8D3F" fill-rule="evenodd" fill-opacity="0.301961"/><path d="M2616 1412.5C2616 1405.6 2621.82 1400 2629 1400 2636.18 1400 2642 1405.6 2642 1412.5 2642 1419.4 2636.18 1425 2629 1425 2621.82 1425 2616 1419.4 2616 1412.5Z" fill="#FF8D3F" fill-rule="evenodd" fill-opacity="0.301961"/><path d="M2660 1434.5C2660 1427.6 2665.6 1422 2672.5 1422 2679.4 1422 2685 1427.6 2685 1434.5 2685 1441.4 2679.4 1447 2672.5 1447 2665.6 1447 2660 1441.4 2660 1434.5Z" fill="#FF8D3F" fill-rule="evenodd" fill-opacity="0.301961"/><path d="M2574 1518.5C2574 1511.6 2579.6 1506 2586.5 1506 2593.4 1506 2599 1511.6 2599 1518.5 2599 1525.4 2593.4 1531 2586.5 1531 2579.6 1531 2574 1525.4 2574 1518.5Z" fill="#FF8D3F" fill-rule="evenodd" fill-opacity="0.301961"/><path d="M2599 1602C2599 1594.82 2604.6 1589 2611.5 1589 2618.4 1589 2624 1594.82 2624 1602 2624 1609.18 2618.4 1615 2611.5 1615 2604.6 1615 2599 1609.18 2599 1602Z" fill="#FF8D3F" fill-rule="evenodd" fill-opacity="0.301961"/><path d="M2656 1515C2656 1507.82 2661.82 1502 2669 1502 2676.18 1502 2682 1507.82 2682 1515 2682 1522.18 2676.18 1528 2669 1528 2661.82 1528 2656 1522.18 2656 1515Z" fill="#FF8D3F" fill-rule="evenodd" fill-opacity="0.301961"/><path d="M2709 1579.5C2709 1572.6 2714.82 1567 2722 1567 2729.18 1567 2735 1572.6 2735 1579.5 2735 1586.4 2729.18 1592 2722 1592 2714.82 1592 2709 1586.4 2709 1579.5Z" fill="#FF8D3F" fill-rule="evenodd" fill-opacity="0.301961"/><path d="M2703 1362C2703 1354.82 2708.6 1349 2715.5 1349 2722.4 1349 2728 1354.82 2728 1362 2728 1369.18 2722.4 1375 2715.5 1375 2708.6 1375 2703 1369.18 2703 1362Z" fill="#FF8D3F" fill-rule="evenodd" fill-opacity="0.301961"/><path d="M2722 1438C2722 1430.82 2727.6 1425 2734.5 1425 2741.4 1425 2747 1430.82 2747 1438 2747 1445.18 2741.4 1451 2734.5 1451 2727.6 1451 2722 1445.18 2722 1438Z" fill="#FF8D3F" fill-rule="evenodd" fill-opacity="0.301961"/><path d="M2617 1213C2617 1217.42 2613.42 1221 2609 1221 2604.58 1221 2601 1217.42 2601 1213 2601 1208.58 2604.58 1205 2609 1205 2613.42 1205 2617 1208.58 2617 1213Z" fill="#FF8D3F" fill-rule="evenodd" fill-opacity="0.301961"/><path d="M2658 1216.5C2658 1221.19 2654.42 1225 2650 1225 2645.58 1225 2642 1221.19 2642 1216.5 2642 1211.81 2645.58 1208 2650 1208 2654.42 1208 2658 1211.81 2658 1216.5Z" fill="#FF8D3F" fill-rule="evenodd" fill-opacity="0.301961"/><path d="M2586 1232.5C2586 1237.19 2582.19 1241 2577.5 1241 2572.81 1241 2569 1237.19 2569 1232.5 2569 1227.81 2572.81 1224 2577.5 1224 2582.19 1224 2586 1227.81 2586 1232.5Z" fill="#FF8D3F" fill-rule="evenodd" fill-opacity="0.301961"/><path d="M2633 1243.5C2633 1248.19 2629.19 1252 2624.5 1252 2619.81 1252 2616 1248.19 2616 1243.5 2616 1238.81 2619.81 1235 2624.5 1235 2629.19 1235 2633 1238.81 2633 1243.5Z" fill="#FF8D3F" fill-rule="evenodd" fill-opacity="0.301961"/><path d="M2690 1243C2690 1247.42 2686.19 1251 2681.5 1251 2676.81 1251 2673 1247.42 2673 1243 2673 1238.58 2676.81 1235 2681.5 1235 2686.19 1235 2690 1238.58 2690 1243Z" fill="#FF8D3F" fill-rule="evenodd" fill-opacity="0.301961"/><path d="M2620 1160C2620 1152.82 2625.6 1147 2632.5 1147 2639.4 1147 2645 1152.82 2645 1160 2645 1167.18 2639.4 1173 2632.5 1173 2625.6 1173 2620 1167.18 2620 1160Z" fill="#FF8D3F" fill-rule="evenodd" fill-opacity="0.301961"/><path d="M0 0 18.1962 8.8729" stroke="#8E3A00" stroke-width="4.58333" stroke-miterlimit="8" stroke-opacity="0.309804" fill="none" fill-rule="evenodd" transform="matrix(-1 0 0 1 2612.7 1295.5)"/><path d="M0 0 48.2849 30.0999" stroke="#8E3A00" stroke-width="4.58333" stroke-miterlimit="8" stroke-opacity="0.309804" fill="none" fill-rule="evenodd" transform="matrix(-1 0 0 1 2572.78 1315.5)"/><path d="M2506.21 1341.56 2464.5 1311.5" stroke="#8E3A00" stroke-width="4.58333" stroke-miterlimit="8" stroke-opacity="0.309804" fill="none" fill-rule="evenodd"/><path d="M0 0 0.874081 99.2292" stroke="#8E3A00" stroke-width="4.58333" stroke-miterlimit="8" stroke-opacity="0.309804" fill="none" fill-rule="evenodd" transform="matrix(-1 0 0 1 2584.37 1323.5)"/><path d="M2583.5 1447.5 2587.11 1505.66" stroke="#8E3A00" stroke-width="4.58333" stroke-miterlimit="8" stroke-opacity="0.309804" fill="none" fill-rule="evenodd"/><path d="M2586.5 1531.5 2611.92 1589.66" stroke="#8E3A00" stroke-width="4.58333" stroke-miterlimit="8" stroke-opacity="0.309804" fill="none" fill-rule="evenodd"/><path d="M2622.5 1299.5 2630.02 1400.46" stroke="#8E3A00" stroke-width="4.58333" stroke-miterlimit="8" stroke-opacity="0.309804" fill="none" fill-rule="evenodd"/><path d="M2635.5 1292.5 2661.06 1302.89" stroke="#8E3A00" stroke-width="4.58333" stroke-miterlimit="8" stroke-opacity="0.309804" fill="none" fill-rule="evenodd"/><path d="M0 0 0.874081 107.17" stroke="#8E3A00" stroke-width="4.58333" stroke-miterlimit="8" stroke-opacity="0.309804" fill="none" fill-rule="evenodd" transform="matrix(-1 0 0 1 2674.37 1315.5)"/><path d="M0 0 3.7623 54.9888" stroke="#8E3A00" stroke-width="4.58333" stroke-miterlimit="8" stroke-opacity="0.309804" fill="none" fill-rule="evenodd" transform="matrix(-1 0 0 1 2673.26 1447.5)"/><path d="M2678.5 1524.5 2713.55 1570.8" stroke="#8E3A00" stroke-width="4.58333" stroke-miterlimit="8" stroke-opacity="0.309804" fill="none" fill-rule="evenodd"/><path d="M2683.5 1311.5 2707.52 1353.37" stroke="#8E3A00" stroke-width="4.58333" stroke-miterlimit="8" stroke-opacity="0.309804" fill="none" fill-rule="evenodd"/><path d="M2719.5 1373.5 2735.47 1426.38" stroke="#8E3A00" stroke-width="4.58333" stroke-miterlimit="8" stroke-opacity="0.309804" fill="none" fill-rule="evenodd"/><path d="M0 0 17.3481 13.5569" stroke="#8E3A00" stroke-width="4.58333" stroke-miterlimit="8" stroke-opacity="0.309804" fill="none" fill-rule="evenodd" transform="matrix(-1 0 0 1 2600.85 1213.5)"/><path d="M2615.5 1219.5 2625.45 1235.7" stroke="#8E3A00" stroke-width="4.58333" stroke-miterlimit="8" stroke-opacity="0.309804" fill="none" fill-rule="evenodd"/><path d="M0 0 13.6872 15.3235" stroke="#8E3A00" stroke-width="4.58333" stroke-miterlimit="8" stroke-opacity="0.309804" fill="none" fill-rule="evenodd" transform="matrix(-1 0 0 1 2645.19 1222.5)"/><path d="M2656.5 1222.5 2676.16 1237.38" stroke="#8E3A00" stroke-width="4.58333" stroke-miterlimit="8" stroke-opacity="0.309804" fill="none" fill-rule="evenodd"/><path d="M0 0 23.4533 32.0913" stroke="#8E3A00" stroke-width="4.58333" stroke-miterlimit="8" stroke-opacity="0.309804" fill="none" fill-rule="evenodd" transform="matrix(-1 0 0 1 2632.95 1173.5)"/><path d="M2632.5 1173.5 2650.29 1208.9" stroke="#8E3A00" stroke-width="4.58333" stroke-miterlimit="8" stroke-opacity="0.309804" fill="none" fill-rule="evenodd"/><path d="M0 0 3.11125 21.9238" stroke="#8E3A00" stroke-width="4.58333" stroke-miterlimit="8" stroke-opacity="0.309804" fill="none" fill-rule="evenodd" transform="matrix(-1 0 0 1 2625.61 1252.5)"/><path d="M0 0 24.8308 12.9221" stroke="#8E3A00" stroke-width="4.58333" stroke-miterlimit="8" stroke-opacity="0.309804" fill="none" fill-rule="evenodd" transform="matrix(1 0 0 -1 2595.5 1435.42)"/><path d="M2660.25 1435.42 2638.5 1422.5" stroke="#8E3A00" stroke-width="4.58333" stroke-miterlimit="8" stroke-opacity="0.309804" fill="none" fill-rule="evenodd"/><path d="M2308 1342C2308 1334.82 2313.6 1329 2320.5 1329 2327.4 1329 2333 1334.82 2333 1342 2333 1349.18 2327.4 1355 2320.5 1355 2313.6 1355 2308 1349.18 2308 1342Z" fill="#FF8D3F" fill-rule="evenodd" fill-opacity="0.301961"/><path d="M2367 1390C2367 1382.82 2372.82 1377 2380 1377 2387.18 1377 2393 1382.82 2393 1390 2393 1397.18 2387.18 1403 2380 1403 2372.82 1403 2367 1397.18 2367 1390Z" fill="#FF8D3F" fill-rule="evenodd" fill-opacity="0.301961"/><path d="M2436 1350C2436 1342.82 2441.6 1337 2448.5 1337 2455.4 1337 2461 1342.82 2461 1350 2461 1357.18 2455.4 1363 2448.5 1363 2441.6 1363 2436 1357.18 2436 1350Z" fill="#FF8D3F" fill-rule="evenodd" fill-opacity="0.301961"/><path d="M2474 1326.5C2474 1319.6 2479.6 1314 2486.5 1314 2493.4 1314 2499 1319.6 2499 1326.5 2499 1333.4 2493.4 1339 2486.5 1339 2479.6 1339 2474 1333.4 2474 1326.5Z" fill="#FF8D3F" fill-rule="evenodd" fill-opacity="0.301961"/><path d="M2526 1342C2526 1334.82 2531.6 1329 2538.5 1329 2545.4 1329 2551 1334.82 2551 1342 2551 1349.18 2545.4 1355 2538.5 1355 2531.6 1355 2526 1349.18 2526 1342Z" fill="#FF8D3F" fill-rule="evenodd" fill-opacity="0.301961"/><path d="M2435 1474.5C2435 1467.6 2440.6 1462 2447.5 1462 2454.4 1462 2460 1467.6 2460 1474.5 2460 1481.4 2454.4 1487 2447.5 1487 2440.6 1487 2435 1481.4 2435 1474.5Z" fill="#FF8D3F" fill-rule="evenodd" fill-opacity="0.301961"/><path d="M2481 1453C2481 1445.82 2486.82 1440 2494 1440 2501.18 1440 2507 1445.82 2507 1453 2507 1460.18 2501.18 1466 2494 1466 2486.82 1466 2481 1460.18 2481 1453Z" fill="#FF8D3F" fill-rule="evenodd" fill-opacity="0.301961"/><path d="M2525 1474.5C2525 1467.6 2530.6 1462 2537.5 1462 2544.4 1462 2550 1467.6 2550 1474.5 2550 1481.4 2544.4 1487 2537.5 1487 2530.6 1487 2525 1481.4 2525 1474.5Z" fill="#FF8D3F" fill-rule="evenodd" fill-opacity="0.301961"/><path d="M2438 1558.5C2438 1551.6 2443.82 1546 2451 1546 2458.18 1546 2464 1551.6 2464 1558.5 2464 1565.4 2458.18 1571 2451 1571 2443.82 1571 2438 1565.4 2438 1558.5Z" fill="#FF8D3F" fill-rule="evenodd" fill-opacity="0.301961"/><path d="M2464 1642C2464 1634.82 2469.6 1629 2476.5 1629 2483.4 1629 2489 1634.82 2489 1642 2489 1649.18 2483.4 1655 2476.5 1655 2469.6 1655 2464 1649.18 2464 1642Z" fill="#FF8D3F" fill-rule="evenodd" fill-opacity="0.301961"/><path d="M2521 1555C2521 1547.82 2526.6 1542 2533.5 1542 2540.4 1542 2546 1547.82 2546 1555 2546 1562.18 2540.4 1568 2533.5 1568 2526.6 1568 2521 1562.18 2521 1555Z" fill="#FF8D3F" fill-rule="evenodd" fill-opacity="0.301961"/><path d="M2574 1619.5C2574 1612.6 2579.6 1607 2586.5 1607 2593.4 1607 2599 1612.6 2599 1619.5 2599 1626.4 2593.4 1632 2586.5 1632 2579.6 1632 2574 1626.4 2574 1619.5Z" fill="#FF8D3F" fill-rule="evenodd" fill-opacity="0.301961"/><path d="M2568 1402C2568 1394.82 2573.6 1389 2580.5 1389 2587.4 1389 2593 1394.82 2593 1402 2593 1409.18 2587.4 1415 2580.5 1415 2573.6 1415 2568 1409.18 2568 1402Z" fill="#FF8D3F" fill-rule="evenodd" fill-opacity="0.301961"/><path d="M2587 1478.5C2587 1471.6 2592.6 1466 2599.5 1466 2606.4 1466 2612 1471.6 2612 1478.5 2612 1485.4 2606.4 1491 2599.5 1491 2592.6 1491 2587 1485.4 2587 1478.5Z" fill="#FF8D3F" fill-rule="evenodd" fill-opacity="0.301961"/><path d="M2482 1253C2482 1257.42 2478.42 1261 2474 1261 2469.58 1261 2466 1257.42 2466 1253 2466 1248.58 2469.58 1245 2474 1245 2478.42 1245 2482 1248.58 2482 1253Z" fill="#FF8D3F" fill-rule="evenodd" fill-opacity="0.301961"/><path d="M2523 1256.5C2523 1261.19 2519.42 1265 2515 1265 2510.58 1265 2507 1261.19 2507 1256.5 2507 1251.81 2510.58 1248 2515 1248 2519.42 1248 2523 1251.81 2523 1256.5Z" fill="#FF8D3F" fill-rule="evenodd" fill-opacity="0.301961"/><path d="M2451 1272.5C2451 1277.19 2447.19 1281 2442.5 1281 2437.81 1281 2434 1277.19 2434 1272.5 2434 1267.81 2437.81 1264 2442.5 1264 2447.19 1264 2451 1267.81 2451 1272.5Z" fill="#FF8D3F" fill-rule="evenodd" fill-opacity="0.301961"/><path d="M2498 1283.5C2498 1288.19 2494.19 1292 2489.5 1292 2484.81 1292 2481 1288.19 2481 1283.5 2481 1278.81 2484.81 1275 2489.5 1275 2494.19 1275 2498 1278.81 2498 1283.5Z" fill="#FF8D3F" fill-rule="evenodd" fill-opacity="0.301961"/><path d="M2555 1283C2555 1287.42 2551.19 1291 2546.5 1291 2541.81 1291 2538 1287.42 2538 1283 2538 1278.58 2541.81 1275 2546.5 1275 2551.19 1275 2555 1278.58 2555 1283Z" fill="#FF8D3F" fill-rule="evenodd" fill-opacity="0.301961"/><path d="M2485 1200C2485 1192.82 2490.6 1187 2497.5 1187 2504.4 1187 2510 1192.82 2510 1200 2510 1207.18 2504.4 1213 2497.5 1213 2490.6 1213 2485 1207.18 2485 1200Z" fill="#FF8D3F" fill-rule="evenodd" fill-opacity="0.301961"/><path d="M0 0 18.1962 8.8729" stroke="#8E3A00" stroke-width="4.58333" stroke-miterlimit="8" stroke-opacity="0.309804" fill="none" fill-rule="evenodd" transform="matrix(-1 0 0 1 2477.7 1335.5)"/><path d="M0 0 48.2849 30.0999" stroke="#8E3A00" stroke-width="4.58333" stroke-miterlimit="8" stroke-opacity="0.309804" fill="none" fill-rule="evenodd" transform="matrix(-1 0 0 1 2437.78 1355.5)"/><path d="M2371.21 1381.56 2329.5 1351.5" stroke="#8E3A00" stroke-width="4.58333" stroke-miterlimit="8" stroke-opacity="0.309804" fill="none" fill-rule="evenodd"/><path d="M0 0 0.874081 99.2292" stroke="#8E3A00" stroke-width="4.58333" stroke-miterlimit="8" stroke-opacity="0.309804" fill="none" fill-rule="evenodd" transform="matrix(-1 0 0 1 2449.37 1363.5)"/><path d="M2448.5 1487.5 2452.11 1545.66" stroke="#8E3A00" stroke-width="4.58333" stroke-miterlimit="8" stroke-opacity="0.309804" fill="none" fill-rule="evenodd"/><path d="M2451.5 1571.5 2476.92 1629.66" stroke="#8E3A00" stroke-width="4.58333" stroke-miterlimit="8" stroke-opacity="0.309804" fill="none" fill-rule="evenodd"/><path d="M2487.5 1339.5 2495.02 1440.46" stroke="#8E3A00" stroke-width="4.58333" stroke-miterlimit="8" stroke-opacity="0.309804" fill="none" fill-rule="evenodd"/><path d="M2500.5 1332.5 2526.06 1342.88" stroke="#8E3A00" stroke-width="4.58333" stroke-miterlimit="8" stroke-opacity="0.309804" fill="none" fill-rule="evenodd"/><path d="M0 0 0.874081 107.17" stroke="#8E3A00" stroke-width="4.58333" stroke-miterlimit="8" stroke-opacity="0.309804" fill="none" fill-rule="evenodd" transform="matrix(-1 0 0 1 2538.37 1355.5)"/><path d="M0 0 3.7623 54.9888" stroke="#8E3A00" stroke-width="4.58333" stroke-miterlimit="8" stroke-opacity="0.309804" fill="none" fill-rule="evenodd" transform="matrix(-1 0 0 1 2538.26 1487.5)"/><path d="M2543.5 1564.5 2578.55 1610.8" stroke="#8E3A00" stroke-width="4.58333" stroke-miterlimit="8" stroke-opacity="0.309804" fill="none" fill-rule="evenodd"/><path d="M2547.5 1351.5 2571.52 1393.37" stroke="#8E3A00" stroke-width="4.58333" stroke-miterlimit="8" stroke-opacity="0.309804" fill="none" fill-rule="evenodd"/><path d="M2583.5 1413.5 2599.47 1466.38" stroke="#8E3A00" stroke-width="4.58333" stroke-miterlimit="8" stroke-opacity="0.309804" fill="none" fill-rule="evenodd"/><path d="M0 0 17.3481 13.5569" stroke="#8E3A00" stroke-width="4.58333" stroke-miterlimit="8" stroke-opacity="0.309804" fill="none" fill-rule="evenodd" transform="matrix(-1 0 0 1 2465.85 1253.5)"/><path d="M2480.5 1259.5 2490.45 1275.7" stroke="#8E3A00" stroke-width="4.58333" stroke-miterlimit="8" stroke-opacity="0.309804" fill="none" fill-rule="evenodd"/><path d="M0 0 13.6872 15.3235" stroke="#8E3A00" stroke-width="4.58333" stroke-miterlimit="8" stroke-opacity="0.309804" fill="none" fill-rule="evenodd" transform="matrix(-1 0 0 1 2509.19 1262.5)"/><path d="M2521.5 1262.5 2541.16 1277.38" stroke="#8E3A00" stroke-width="4.58333" stroke-miterlimit="8" stroke-opacity="0.309804" fill="none" fill-rule="evenodd"/><path d="M0 0 23.4533 32.0913" stroke="#8E3A00" stroke-width="4.58333" stroke-miterlimit="8" stroke-opacity="0.309804" fill="none" fill-rule="evenodd" transform="matrix(-1 0 0 1 2497.95 1213.5)"/><path d="M2497.5 1213.5 2515.28 1248.9" stroke="#8E3A00" stroke-width="4.58333" stroke-miterlimit="8" stroke-opacity="0.309804" fill="none" fill-rule="evenodd"/><path d="M0 0 3.11125 21.9238" stroke="#8E3A00" stroke-width="4.58333" stroke-miterlimit="8" stroke-opacity="0.309804" fill="none" fill-rule="evenodd" transform="matrix(-1 0 0 1 2490.61 1292.5)"/><path d="M0 0 24.8308 12.9221" stroke="#8E3A00" stroke-width="4.58333" stroke-miterlimit="8" stroke-opacity="0.309804" fill="none" fill-rule="evenodd" transform="matrix(1 0 0 -1 2460.5 1475.42)"/><path d="M2525.25 1475.42 2503.5 1462.5" stroke="#8E3A00" stroke-width="4.58333" stroke-miterlimit="8" stroke-opacity="0.309804" fill="none" fill-rule="evenodd"/><path d="M1738 1109C1738 1101.82 1743.6 1096 1750.5 1096 1757.4 1096 1763 1101.82 1763 1109 1763 1116.18 1757.4 1122 1750.5 1122 1743.6 1122 1738 1116.18 1738 1109Z" fill="#0075B0" fill-rule="evenodd" fill-opacity="0.341176"/><path d="M1660 1159C1660 1151.82 1665.82 1146 1673 1146 1680.18 1146 1686 1151.82 1686 1159 1686 1166.18 1680.18 1172 1673 1172 1665.82 1172 1660 1166.18 1660 1159Z" fill="#0075B0" fill-rule="evenodd" fill-opacity="0.341176"/><path d="M1785 1156.5C1785 1149.6 1790.82 1144 1798 1144 1805.18 1144 1811 1149.6 1811 1156.5 1811 1163.4 1805.18 1169 1798 1169 1790.82 1169 1785 1163.4 1785 1156.5Z" fill="#0075B0" fill-rule="evenodd" fill-opacity="0.341176"/><path d="M1614 1279C1614 1271.82 1619.82 1266 1627 1266 1634.18 1266 1640 1271.82 1640 1279 1640 1286.18 1634.18 1292 1627 1292 1619.82 1292 1614 1286.18 1614 1279Z" fill="#0075B0" fill-rule="evenodd" fill-opacity="0.341176"/><path d="M1821 1281.5C1821 1274.6 1826.6 1269 1833.5 1269 1840.4 1269 1846 1274.6 1846 1281.5 1846 1288.4 1840.4 1294 1833.5 1294 1826.6 1294 1821 1288.4 1821 1281.5Z" fill="#0075B0" fill-rule="evenodd" fill-opacity="0.341176"/><path d="M1825 1216.5C1825 1209.6 1830.6 1204 1837.5 1204 1844.4 1204 1850 1209.6 1850 1216.5 1850 1223.4 1844.4 1229 1837.5 1229 1830.6 1229 1825 1223.4 1825 1216.5Z" fill="#0075B0" fill-rule="evenodd" fill-opacity="0.341176"/><path d="M1941 1160C1941 1152.82 1946.6 1147 1953.5 1147 1960.4 1147 1966 1152.82 1966 1160 1966 1167.18 1960.4 1173 1953.5 1173 1946.6 1173 1941 1167.18 1941 1160Z" fill="#0075B0" fill-rule="evenodd" fill-opacity="0.341176"/><path d="M1724 985.5C1724 978.597 1729.6 973 1736.5 973 1743.4 973 1749 978.597 1749 985.5 1749 992.404 1743.4 998 1736.5 998 1729.6 998 1724 992.404 1724 985.5Z" fill="#0075B0" fill-rule="evenodd" fill-opacity="0.341176"/><path d="M1728 1341.5C1728 1334.6 1733.6 1329 1740.5 1329 1747.4 1329 1753 1334.6 1753 1341.5 1753 1348.4 1747.4 1354 1740.5 1354 1733.6 1354 1728 1348.4 1728 1341.5Z" fill="#0075B0" fill-rule="evenodd" fill-opacity="0.341176"/><path d="M1665 1400.5C1665 1393.6 1670.6 1388 1677.5 1388 1684.4 1388 1690 1393.6 1690 1400.5 1690 1407.4 1684.4 1413 1677.5 1413 1670.6 1413 1665 1407.4 1665 1400.5Z" fill="#0075B0" fill-rule="evenodd" fill-opacity="0.341176"/><path d="M1789 1367.5C1789 1360.6 1794.6 1355 1801.5 1355 1808.4 1355 1814 1360.6 1814 1367.5 1814 1374.4 1808.4 1380 1801.5 1380 1794.6 1380 1789 1374.4 1789 1367.5Z" fill="#0075B0" fill-rule="evenodd" fill-opacity="0.341176"/><path d="M1861 1423C1861 1415.82 1866.82 1410 1874 1410 1881.18 1410 1887 1415.82 1887 1423 1887 1430.18 1881.18 1436 1874 1436 1866.82 1436 1861 1430.18 1861 1423Z" fill="#0075B0" fill-rule="evenodd" fill-opacity="0.341176"/><path d="M1916 1403.5C1916 1396.6 1921.6 1391 1928.5 1391 1935.4 1391 1941 1396.6 1941 1403.5 1941 1410.4 1935.4 1416 1928.5 1416 1921.6 1416 1916 1410.4 1916 1403.5Z" fill="#0075B0" fill-rule="evenodd" fill-opacity="0.341176"/><path d="M1866 1627.5C1866 1620.6 1871.6 1615 1878.5 1615 1885.4 1615 1891 1620.6 1891 1627.5 1891 1634.4 1885.4 1640 1878.5 1640 1871.6 1640 1866 1634.4 1866 1627.5Z" fill="#0075B0" fill-rule="evenodd" fill-opacity="0.341176"/><path d="M1941 1627.5C1941 1620.6 1946.82 1615 1954 1615 1961.18 1615 1967 1620.6 1967 1627.5 1967 1634.4 1961.18 1640 1954 1640 1946.82 1640 1941 1634.4 1941 1627.5Z" fill="#0075B0" fill-rule="evenodd" fill-opacity="0.341176"/><path d="M0 0 8.50407 33.4031" stroke="#1E386B" stroke-width="4.58333" stroke-miterlimit="8" stroke-opacity="0.188235" fill="none" fill-rule="evenodd" transform="matrix(-1 0 0 1 1737 998.5)"/><path d="M0 0 59.2939 31.7325" stroke="#1E386B" stroke-width="4.58333" stroke-miterlimit="8" stroke-opacity="0.188235" fill="none" fill-rule="evenodd" transform="matrix(-1 0 0 1 1741.79 1118.5)"/><path d="M1759.5 1118.5 1789.14 1147.68" stroke="#1E386B" stroke-width="4.58333" stroke-miterlimit="8" stroke-opacity="0.188235" fill="none" fill-rule="evenodd"/><path d="M0 0 37.1402 98.555" stroke="#1E386B" stroke-width="4.58333" stroke-miterlimit="8" stroke-opacity="0.188235" fill="none" fill-rule="evenodd" transform="matrix(-1 0 0 1 1664.64 1168.5)"/><path d="M1807.5 1165.5 1829.11 1207.77" stroke="#1E386B" stroke-width="4.58333" stroke-miterlimit="8" stroke-opacity="0.188235" fill="none" fill-rule="evenodd"/><path d="M1821.93 1281.7 1640.5 1279.5" stroke="#1E386B" stroke-width="4.58333" stroke-miterlimit="8" stroke-opacity="0.188235" fill="none" fill-rule="evenodd"/><path d="M1677.96 1388.61 1673.5 1172.5" stroke="#1E386B" stroke-width="4.58333" stroke-miterlimit="8" stroke-opacity="0.188235" fill="none" fill-rule="evenodd"/><path d="M1802.11 1355.47 1798.5 1169.5" stroke="#1E386B" stroke-width="4.58333" stroke-miterlimit="8" stroke-opacity="0.188235" fill="none" fill-rule="evenodd"/><path d="M0 0 9.72641 206.767" stroke="#1E386B" stroke-width="4.58333" stroke-miterlimit="8" stroke-opacity="0.188235" fill="none" fill-rule="evenodd" transform="matrix(1 0 0 -1 1741.5 1329.27)"/><path d="M0 0 45.1097 41.0732" stroke="#1E386B" stroke-width="4.58333" stroke-miterlimit="8" stroke-opacity="0.188235" fill="none" fill-rule="evenodd" transform="matrix(1 0 0 -1 1686.5 1391.57)"/><path d="M1793.48 1358.88 1750.5 1350.5" stroke="#1E386B" stroke-width="4.58333" stroke-miterlimit="8" stroke-opacity="0.188235" fill="none" fill-rule="evenodd"/><path d="M0 0 94.3405 47.5313" stroke="#1E386B" stroke-width="4.58333" stroke-miterlimit="8" stroke-opacity="0.188235" fill="none" fill-rule="evenodd" transform="matrix(-1 0 0 1 1944.84 1169.5)"/><path d="M1690.5 1400.5 1861.52 1422.99" stroke="#1E386B" stroke-width="4.58333" stroke-miterlimit="8" stroke-opacity="0.188235" fill="none" fill-rule="evenodd"/><path d="M1879.34 1615.8 1874.5 1436.5" stroke="#1E386B" stroke-width="4.58333" stroke-miterlimit="8" stroke-opacity="0.188235" fill="none" fill-rule="evenodd"/><path d="M1814.5 1368.5 1916.31 1404.41" stroke="#1E386B" stroke-width="4.58333" stroke-miterlimit="8" stroke-opacity="0.188235" fill="none" fill-rule="evenodd"/><path d="M1929.5 1416.5 1954.92 1615.07" stroke="#1E386B" stroke-width="4.58333" stroke-miterlimit="8" stroke-opacity="0.188235" fill="none" fill-rule="evenodd"/><path d="M1736 1040C1736 1044.42 1732.42 1048 1728 1048 1723.58 1048 1720 1044.42 1720 1040 1720 1035.58 1723.58 1032 1728 1032 1732.42 1032 1736 1035.58 1736 1040Z" fill="#0075B0" fill-rule="evenodd" fill-opacity="0.341176"/><path d="M1779 1033.5C1779 1038.19 1775.19 1042 1770.5 1042 1765.81 1042 1762 1038.19 1762 1033.5 1762 1028.81 1765.81 1025 1770.5 1025 1775.19 1025 1779 1028.81 1779 1033.5Z" fill="#0075B0" fill-rule="evenodd" fill-opacity="0.341176"/><path d="M1814 1053.5C1814 1058.19 1810.42 1062 1806 1062 1801.58 1062 1798 1058.19 1798 1053.5 1798 1048.81 1801.58 1045 1806 1045 1810.42 1045 1814 1048.81 1814 1053.5Z" fill="#0075B0" fill-rule="evenodd" fill-opacity="0.341176"/><path d="M1759 1062.5C1759 1067.19 1755.19 1071 1750.5 1071 1745.81 1071 1742 1067.19 1742 1062.5 1742 1057.81 1745.81 1054 1750.5 1054 1755.19 1054 1759 1057.81 1759 1062.5Z" fill="#0075B0" fill-rule="evenodd" fill-opacity="0.341176"/><path d="M1699 1069.5C1699 1074.19 1695.19 1078 1690.5 1078 1685.81 1078 1682 1074.19 1682 1069.5 1682 1064.81 1685.81 1061 1690.5 1061 1695.19 1061 1699 1064.81 1699 1069.5Z" fill="#0075B0" fill-rule="evenodd" fill-opacity="0.341176"/><path d="M0 0 25.8186 17.7599" stroke="#1E386B" stroke-width="4.58333" stroke-miterlimit="8" stroke-opacity="0.188235" fill="none" fill-rule="evenodd" transform="matrix(-1 0 0 1 1722.32 1046.5)"/><path d="M1734.5 1046.5 1745.22 1057.16" stroke="#1E386B" stroke-width="4.58333" stroke-miterlimit="8" stroke-opacity="0.188235" fill="none" fill-rule="evenodd"/><path d="M0 0 8.61306 17.425" stroke="#1E386B" stroke-width="4.58333" stroke-miterlimit="8" stroke-opacity="0.188235" fill="none" fill-rule="evenodd" transform="matrix(-1 0 0 1 1765.11 1039.5)"/><path d="M1776.5 1039.5 1800.05 1047.94" stroke="#1E386B" stroke-width="4.58333" stroke-miterlimit="8" stroke-opacity="0.188235" fill="none" fill-rule="evenodd"/><path d="M0 0 0.0119094 25.6266" stroke="#1E386B" stroke-width="4.58333" stroke-miterlimit="8" stroke-opacity="0.188235" fill="none" fill-rule="evenodd" transform="matrix(-1 0 0 1 1750.51 1071.5)"/><path d="M1736.5 998.5 1764.92 1027.56" stroke="#1E386B" stroke-width="4.58333" stroke-miterlimit="8" stroke-opacity="0.188235" fill="none" fill-rule="evenodd"/><path d="M1791.34 1043.96 1907.61 1019.99 1932.75 1141.87 1816.48 1165.85Z" stroke="#D6EDFF" stroke-width="4.58333" stroke-miterlimit="8" fill="none" fill-rule="evenodd"/><path d="M1854.5 1161C1854.5 1154.1 1860.1 1148.5 1867 1148.5 1873.9 1148.5 1879.5 1154.1 1879.5 1161 1879.5 1167.9 1873.9 1173.5 1867 1173.5 1860.1 1173.5 1854.5 1167.9 1854.5 1161Z" stroke="#0075B0" stroke-width="4.58333" stroke-miterlimit="8" fill="#0075B0" fill-rule="evenodd"/><path d="M1776.5 1210.5C1776.5 1203.32 1782.32 1197.5 1789.5 1197.5 1796.68 1197.5 1802.5 1203.32 1802.5 1210.5 1802.5 1217.68 1796.68 1223.5 1789.5 1223.5 1782.32 1223.5 1776.5 1217.68 1776.5 1210.5Z" stroke="#0075B0" stroke-width="4.58333" stroke-miterlimit="8" fill="#0075B0" fill-rule="evenodd"/><path d="M1901.5 1208C1901.5 1201.1 1907.32 1195.5 1914.5 1195.5 1921.68 1195.5 1927.5 1201.1 1927.5 1208 1927.5 1214.9 1921.68 1220.5 1914.5 1220.5 1907.32 1220.5 1901.5 1214.9 1901.5 1208Z" stroke="#0075B0" stroke-width="4.58333" stroke-miterlimit="8" fill="#0075B0" fill-rule="evenodd"/><path d="M1730.5 1331C1730.5 1324.1 1736.32 1318.5 1743.5 1318.5 1750.68 1318.5 1756.5 1324.1 1756.5 1331 1756.5 1337.9 1750.68 1343.5 1743.5 1343.5 1736.32 1343.5 1730.5 1337.9 1730.5 1331Z" stroke="#0075B0" stroke-width="4.58333" stroke-miterlimit="8" fill="#0075B0" fill-rule="evenodd"/><path d="M1937.5 1333C1937.5 1326.1 1943.1 1320.5 1950 1320.5 1956.9 1320.5 1962.5 1326.1 1962.5 1333 1962.5 1339.9 1956.9 1345.5 1950 1345.5 1943.1 1345.5 1937.5 1339.9 1937.5 1333Z" stroke="#0075B0" stroke-width="4.58333" stroke-miterlimit="8" fill="#0075B0" fill-rule="evenodd"/><path d="M1941.5 1268C1941.5 1261.1 1947.1 1255.5 1954 1255.5 1960.9 1255.5 1966.5 1261.1 1966.5 1268 1966.5 1274.9 1960.9 1280.5 1954 1280.5 1947.1 1280.5 1941.5 1274.9 1941.5 1268Z" stroke="#0075B0" stroke-width="4.58333" stroke-miterlimit="8" fill="#0075B0" fill-rule="evenodd"/><path d="M2057.5 1212C2057.5 1205.1 2063.1 1199.5 2070 1199.5 2076.9 1199.5 2082.5 1205.1 2082.5 1212 2082.5 1218.9 2076.9 1224.5 2070 1224.5 2063.1 1224.5 2057.5 1218.9 2057.5 1212Z" stroke="#0075B0" stroke-width="4.58333" stroke-miterlimit="8" fill="#0075B0" fill-rule="evenodd"/><path d="M1840.5 1037.5C1840.5 1030.32 1846.1 1024.5 1853 1024.5 1859.9 1024.5 1865.5 1030.32 1865.5 1037.5 1865.5 1044.68 1859.9 1050.5 1853 1050.5 1846.1 1050.5 1840.5 1044.68 1840.5 1037.5Z" stroke="#0075B0" stroke-width="4.58333" stroke-miterlimit="8" fill="#0075B0" fill-rule="evenodd"/><path d="M1844.5 1393C1844.5 1386.1 1850.1 1380.5 1857 1380.5 1863.9 1380.5 1869.5 1386.1 1869.5 1393 1869.5 1399.9 1863.9 1405.5 1857 1405.5 1850.1 1405.5 1844.5 1399.9 1844.5 1393Z" stroke="#0075B0" stroke-width="4.58333" stroke-miterlimit="8" fill="#0075B0" fill-rule="evenodd"/><path d="M1781.5 1452C1781.5 1445.1 1787.1 1439.5 1794 1439.5 1800.9 1439.5 1806.5 1445.1 1806.5 1452 1806.5 1458.9 1800.9 1464.5 1794 1464.5 1787.1 1464.5 1781.5 1458.9 1781.5 1452Z" stroke="#0075B0" stroke-width="4.58333" stroke-miterlimit="8" fill="#0075B0" fill-rule="evenodd"/><path d="M1905.5 1419.5C1905.5 1412.32 1911.1 1406.5 1918 1406.5 1924.9 1406.5 1930.5 1412.32 1930.5 1419.5 1930.5 1426.68 1924.9 1432.5 1918 1432.5 1911.1 1432.5 1905.5 1426.68 1905.5 1419.5Z" stroke="#0075B0" stroke-width="4.58333" stroke-miterlimit="8" fill="#0075B0" fill-rule="evenodd"/><path d="M1977.5 1474.5C1977.5 1467.32 1983.32 1461.5 1990.5 1461.5 1997.68 1461.5 2003.5 1467.32 2003.5 1474.5 2003.5 1481.68 1997.68 1487.5 1990.5 1487.5 1983.32 1487.5 1977.5 1481.68 1977.5 1474.5Z" stroke="#0075B0" stroke-width="4.58333" stroke-miterlimit="8" fill="#0075B0" fill-rule="evenodd"/><path d="M2032.5 1455.5C2032.5 1448.32 2038.1 1442.5 2045 1442.5 2051.9 1442.5 2057.5 1448.32 2057.5 1455.5 2057.5 1462.68 2051.9 1468.5 2045 1468.5 2038.1 1468.5 2032.5 1462.68 2032.5 1455.5Z" stroke="#0075B0" stroke-width="4.58333" stroke-miterlimit="8" fill="#0075B0" fill-rule="evenodd"/><path d="M1982.5 1679.5C1982.5 1672.32 1988.1 1666.5 1995 1666.5 2001.9 1666.5 2007.5 1672.32 2007.5 1679.5 2007.5 1686.68 2001.9 1692.5 1995 1692.5 1988.1 1692.5 1982.5 1686.68 1982.5 1679.5Z" stroke="#0075B0" stroke-width="4.58333" stroke-miterlimit="8" fill="#0075B0" fill-rule="evenodd"/><path d="M2057.5 1679.5C2057.5 1672.32 2063.32 1666.5 2070.5 1666.5 2077.68 1666.5 2083.5 1672.32 2083.5 1679.5 2083.5 1686.68 2077.68 1692.5 2070.5 1692.5 2063.32 1692.5 2057.5 1686.68 2057.5 1679.5Z" stroke="#0075B0" stroke-width="4.58333" stroke-miterlimit="8" fill="#0075B0" fill-rule="evenodd"/><path d="M0 0 8.50407 33.4031" stroke="#003865" stroke-width="4.58333" stroke-miterlimit="8" fill="none" fill-rule="evenodd" transform="matrix(-1 0 0 1 1853 1050.5)"/><path d="M0 0 59.2939 31.7325" stroke="#003865" stroke-width="4.58333" stroke-miterlimit="8" fill="none" fill-rule="evenodd" transform="matrix(-1 0 0 1 1857.79 1169.5)"/><path d="M1875.5 1169.5 1905.14 1198.68" stroke="#003865" stroke-width="4.58333" stroke-miterlimit="8" fill="none" fill-rule="evenodd"/><path d="M0 0 37.1402 98.555" stroke="#003865" stroke-width="4.58333" stroke-miterlimit="8" fill="none" fill-rule="evenodd" transform="matrix(-1 0 0 1 1780.64 1219.5)"/><path d="M1923.5 1217.5 1945.11 1259.77" stroke="#003865" stroke-width="4.58333" stroke-miterlimit="8" fill="none" fill-rule="evenodd"/><path d="M1937.93 1332.7 1756.5 1330.5" stroke="#003865" stroke-width="4.58333" stroke-miterlimit="8" fill="none" fill-rule="evenodd"/><path d="M1793.96 1439.61 1789.5 1223.5" stroke="#003865" stroke-width="4.58333" stroke-miterlimit="8" fill="none" fill-rule="evenodd"/><path d="M1918.11 1406.47 1914.5 1220.5" stroke="#003865" stroke-width="4.58333" stroke-miterlimit="8" fill="none" fill-rule="evenodd"/><path d="M0 0 9.72641 206.767" stroke="#003865" stroke-width="4.58333" stroke-miterlimit="8" fill="none" fill-rule="evenodd" transform="matrix(1 0 0 -1 1857.5 1380.27)"/><path d="M0 0 45.1097 41.0732" stroke="#003865" stroke-width="4.58333" stroke-miterlimit="8" fill="none" fill-rule="evenodd" transform="matrix(1 0 0 -1 1802.5 1443.57)"/><path d="M1909.48 1410.88 1866.5 1402.5" stroke="#003865" stroke-width="4.58333" stroke-miterlimit="8" fill="none" fill-rule="evenodd"/><path d="M0 0 94.3405 47.5313" stroke="#003865" stroke-width="4.58333" stroke-miterlimit="8" fill="none" fill-rule="evenodd" transform="matrix(-1 0 0 1 2060.84 1220.5)"/><path d="M1806.5 1452.5 1977.51 1474.99" stroke="#003865" stroke-width="4.58333" stroke-miterlimit="8" fill="none" fill-rule="evenodd"/><path d="M1995.34 1666.8 1990.5 1487.5" stroke="#003865" stroke-width="4.58333" stroke-miterlimit="8" fill="none" fill-rule="evenodd"/><path d="M1930.5 1419.5 2032.31 1455.41" stroke="#003865" stroke-width="4.58333" stroke-miterlimit="8" fill="none" fill-rule="evenodd"/><path d="M2045.5 1468.5 2070.92 1667.07" stroke="#003865" stroke-width="4.58333" stroke-miterlimit="8" fill="none" fill-rule="evenodd"/><path d="M1852.5 1092C1852.5 1096.69 1848.92 1100.5 1844.5 1100.5 1840.08 1100.5 1836.5 1096.69 1836.5 1092 1836.5 1087.31 1840.08 1083.5 1844.5 1083.5 1848.92 1083.5 1852.5 1087.31 1852.5 1092Z" stroke="#0075B0" stroke-width="4.58333" stroke-miterlimit="8" fill="#0075B0" fill-rule="evenodd"/><path d="M1895.5 1085C1895.5 1089.69 1891.69 1093.5 1887 1093.5 1882.31 1093.5 1878.5 1089.69 1878.5 1085 1878.5 1080.31 1882.31 1076.5 1887 1076.5 1891.69 1076.5 1895.5 1080.31 1895.5 1085Z" stroke="#0075B0" stroke-width="4.58333" stroke-miterlimit="8" fill="#0075B0" fill-rule="evenodd"/><path d="M1930.5 1105C1930.5 1109.69 1926.92 1113.5 1922.5 1113.5 1918.08 1113.5 1914.5 1109.69 1914.5 1105 1914.5 1100.31 1918.08 1096.5 1922.5 1096.5 1926.92 1096.5 1930.5 1100.31 1930.5 1105Z" stroke="#0075B0" stroke-width="4.58333" stroke-miterlimit="8" fill="#0075B0" fill-rule="evenodd"/><path d="M1875.5 1114C1875.5 1118.69 1871.69 1122.5 1867 1122.5 1862.31 1122.5 1858.5 1118.69 1858.5 1114 1858.5 1109.31 1862.31 1105.5 1867 1105.5 1871.69 1105.5 1875.5 1109.31 1875.5 1114Z" stroke="#0075B0" stroke-width="4.58333" stroke-miterlimit="8" fill="#0075B0" fill-rule="evenodd"/><path d="M1815.5 1121.5C1815.5 1125.92 1811.69 1129.5 1807 1129.5 1802.31 1129.5 1798.5 1125.92 1798.5 1121.5 1798.5 1117.08 1802.31 1113.5 1807 1113.5 1811.69 1113.5 1815.5 1117.08 1815.5 1121.5Z" stroke="#0075B0" stroke-width="4.58333" stroke-miterlimit="8" fill="#0075B0" fill-rule="evenodd"/><path d="M0 0 25.8186 17.7599" stroke="#003865" stroke-width="4.58333" stroke-miterlimit="8" fill="none" fill-rule="evenodd" transform="matrix(-1 0 0 1 1838.32 1097.5)"/><path d="M1850.5 1097.5 1861.22 1108.16" stroke="#003865" stroke-width="4.58333" stroke-miterlimit="8" fill="none" fill-rule="evenodd"/><path d="M0 0 8.61306 17.425" stroke="#003865" stroke-width="4.58333" stroke-miterlimit="8" fill="none" fill-rule="evenodd" transform="matrix(-1 0 0 1 1881.11 1090.5)"/><path d="M1893.5 1090.5 1917.05 1098.94" stroke="#003865" stroke-width="4.58333" stroke-miterlimit="8" fill="none" fill-rule="evenodd"/><path d="M0 0 0.0119094 25.6266" stroke="#003865" stroke-width="4.58333" stroke-miterlimit="8" fill="none" fill-rule="evenodd" transform="matrix(-1 0 0 1 1866.51 1122.5)"/><path d="M1852.5 1050.5 1880.92 1079.56" stroke="#003865" stroke-width="4.58333" stroke-miterlimit="8" fill="none" fill-rule="evenodd"/><path d="M2314.64 1242.88 2421.91 1255.89 2407.6 1373.8 2300.33 1360.79Z" stroke="#FFD9BF" stroke-width="4.58333" stroke-miterlimit="8" fill="none" fill-rule="evenodd"/><path d="M2173.5 1389.5C2173.5 1382.32 2179.1 1376.5 2186 1376.5 2192.9 1376.5 2198.5 1382.32 2198.5 1389.5 2198.5 1396.68 2192.9 1402.5 2186 1402.5 2179.1 1402.5 2173.5 1396.68 2173.5 1389.5Z" stroke="#FF8D3F" stroke-width="4.58333" stroke-miterlimit="8" fill="#FF8D3F" fill-rule="evenodd"/><path d="M2233.5 1437.5C2233.5 1430.32 2239.1 1424.5 2246 1424.5 2252.9 1424.5 2258.5 1430.32 2258.5 1437.5 2258.5 1444.68 2252.9 1450.5 2246 1450.5 2239.1 1450.5 2233.5 1444.68 2233.5 1437.5Z" stroke="#FF8D3F" stroke-width="4.58333" stroke-miterlimit="8" fill="#FF8D3F" fill-rule="evenodd"/><path d="M2301.5 1397C2301.5 1390.1 2307.1 1384.5 2314 1384.5 2320.9 1384.5 2326.5 1390.1 2326.5 1397 2326.5 1403.9 2320.9 1409.5 2314 1409.5 2307.1 1409.5 2301.5 1403.9 2301.5 1397Z" stroke="#FF8D3F" stroke-width="4.58333" stroke-miterlimit="8" fill="#FF8D3F" fill-rule="evenodd"/><path d="M2339.5 1373.5C2339.5 1366.32 2345.1 1360.5 2352 1360.5 2358.9 1360.5 2364.5 1366.32 2364.5 1373.5 2364.5 1380.68 2358.9 1386.5 2352 1386.5 2345.1 1386.5 2339.5 1380.68 2339.5 1373.5Z" stroke="#FF8D3F" stroke-width="4.58333" stroke-miterlimit="8" fill="#FF8D3F" fill-rule="evenodd"/><path d="M2391.5 1389.5C2391.5 1382.32 2397.1 1376.5 2404 1376.5 2410.9 1376.5 2416.5 1382.32 2416.5 1389.5 2416.5 1396.68 2410.9 1402.5 2404 1402.5 2397.1 1402.5 2391.5 1396.68 2391.5 1389.5Z" stroke="#FF8D3F" stroke-width="4.58333" stroke-miterlimit="8" fill="#FF8D3F" fill-rule="evenodd"/><path d="M2300.5 1522C2300.5 1515.1 2306.1 1509.5 2313 1509.5 2319.9 1509.5 2325.5 1515.1 2325.5 1522 2325.5 1528.9 2319.9 1534.5 2313 1534.5 2306.1 1534.5 2300.5 1528.9 2300.5 1522Z" stroke="#FF8D3F" stroke-width="4.58333" stroke-miterlimit="8" fill="#FF8D3F" fill-rule="evenodd"/><path d="M2347.5 1500C2347.5 1493.1 2353.1 1487.5 2360 1487.5 2366.9 1487.5 2372.5 1493.1 2372.5 1500 2372.5 1506.9 2366.9 1512.5 2360 1512.5 2353.1 1512.5 2347.5 1506.9 2347.5 1500Z" stroke="#FF8D3F" stroke-width="4.58333" stroke-miterlimit="8" fill="#FF8D3F" fill-rule="evenodd"/><path d="M2390.5 1522C2390.5 1515.1 2396.1 1509.5 2403 1509.5 2409.9 1509.5 2415.5 1515.1 2415.5 1522 2415.5 1528.9 2409.9 1534.5 2403 1534.5 2396.1 1534.5 2390.5 1528.9 2390.5 1522Z" stroke="#FF8D3F" stroke-width="4.58333" stroke-miterlimit="8" fill="#FF8D3F" fill-rule="evenodd"/><path d="M2304.5 1605.5C2304.5 1598.32 2310.1 1592.5 2317 1592.5 2323.9 1592.5 2329.5 1598.32 2329.5 1605.5 2329.5 1612.68 2323.9 1618.5 2317 1618.5 2310.1 1618.5 2304.5 1612.68 2304.5 1605.5Z" stroke="#FF8D3F" stroke-width="4.58333" stroke-miterlimit="8" fill="#FF8D3F" fill-rule="evenodd"/><path d="M2329.5 1689C2329.5 1682.1 2335.32 1676.5 2342.5 1676.5 2349.68 1676.5 2355.5 1682.1 2355.5 1689 2355.5 1695.9 2349.68 1701.5 2342.5 1701.5 2335.32 1701.5 2329.5 1695.9 2329.5 1689Z" stroke="#FF8D3F" stroke-width="4.58333" stroke-miterlimit="8" fill="#FF8D3F" fill-rule="evenodd"/><path d="M2386.5 1602.5C2386.5 1595.32 2392.32 1589.5 2399.5 1589.5 2406.68 1589.5 2412.5 1595.32 2412.5 1602.5 2412.5 1609.68 2406.68 1615.5 2399.5 1615.5 2392.32 1615.5 2386.5 1609.68 2386.5 1602.5Z" stroke="#FF8D3F" stroke-width="4.58333" stroke-miterlimit="8" fill="#FF8D3F" fill-rule="evenodd"/><path d="M2439.5 1666.5C2439.5 1659.32 2445.32 1653.5 2452.5 1653.5 2459.68 1653.5 2465.5 1659.32 2465.5 1666.5 2465.5 1673.68 2459.68 1679.5 2452.5 1679.5 2445.32 1679.5 2439.5 1673.68 2439.5 1666.5Z" stroke="#FF8D3F" stroke-width="4.58333" stroke-miterlimit="8" fill="#FF8D3F" fill-rule="evenodd"/><path d="M2433.5 1449C2433.5 1442.1 2439.1 1436.5 2446 1436.5 2452.9 1436.5 2458.5 1442.1 2458.5 1449 2458.5 1455.9 2452.9 1461.5 2446 1461.5 2439.1 1461.5 2433.5 1455.9 2433.5 1449Z" stroke="#FF8D3F" stroke-width="4.58333" stroke-miterlimit="8" fill="#FF8D3F" fill-rule="evenodd"/><path d="M2452.5 1525.5C2452.5 1518.32 2458.1 1512.5 2465 1512.5 2471.9 1512.5 2477.5 1518.32 2477.5 1525.5 2477.5 1532.68 2471.9 1538.5 2465 1538.5 2458.1 1538.5 2452.5 1532.68 2452.5 1525.5Z" stroke="#FF8D3F" stroke-width="4.58333" stroke-miterlimit="8" fill="#FF8D3F" fill-rule="evenodd"/><path d="M2347.5 1300.5C2347.5 1304.92 2343.92 1308.5 2339.5 1308.5 2335.08 1308.5 2331.5 1304.92 2331.5 1300.5 2331.5 1296.08 2335.08 1292.5 2339.5 1292.5 2343.92 1292.5 2347.5 1296.08 2347.5 1300.5Z" stroke="#FF8D3F" stroke-width="4.58333" stroke-miterlimit="8" fill="#FF8D3F" fill-rule="evenodd"/><path d="M2389.5 1303.5C2389.5 1307.92 2385.69 1311.5 2381 1311.5 2376.31 1311.5 2372.5 1307.92 2372.5 1303.5 2372.5 1299.08 2376.31 1295.5 2381 1295.5 2385.69 1295.5 2389.5 1299.08 2389.5 1303.5Z" stroke="#FF8D3F" stroke-width="4.58333" stroke-miterlimit="8" fill="#FF8D3F" fill-rule="evenodd"/><path d="M2316.5 1320C2316.5 1324.69 2312.69 1328.5 2308 1328.5 2303.31 1328.5 2299.5 1324.69 2299.5 1320 2299.5 1315.31 2303.31 1311.5 2308 1311.5 2312.69 1311.5 2316.5 1315.31 2316.5 1320Z" stroke="#FF8D3F" stroke-width="4.58333" stroke-miterlimit="8" fill="#FF8D3F" fill-rule="evenodd"/><path d="M2363.5 1330.5C2363.5 1334.92 2359.92 1338.5 2355.5 1338.5 2351.08 1338.5 2347.5 1334.92 2347.5 1330.5 2347.5 1326.08 2351.08 1322.5 2355.5 1322.5 2359.92 1322.5 2363.5 1326.08 2363.5 1330.5Z" stroke="#FF8D3F" stroke-width="4.58333" stroke-miterlimit="8" fill="#FF8D3F" fill-rule="evenodd"/><path d="M2420.5 1330C2420.5 1334.69 2416.69 1338.5 2412 1338.5 2407.31 1338.5 2403.5 1334.69 2403.5 1330 2403.5 1325.31 2407.31 1321.5 2412 1321.5 2416.69 1321.5 2420.5 1325.31 2420.5 1330Z" stroke="#FF8D3F" stroke-width="4.58333" stroke-miterlimit="8" fill="#FF8D3F" fill-rule="evenodd"/><path d="M2350.5 1247C2350.5 1240.1 2356.1 1234.5 2363 1234.5 2369.9 1234.5 2375.5 1240.1 2375.5 1247 2375.5 1253.9 2369.9 1259.5 2363 1259.5 2356.1 1259.5 2350.5 1253.9 2350.5 1247Z" stroke="#FF8D3F" stroke-width="4.58333" stroke-miterlimit="8" fill="#FF8D3F" fill-rule="evenodd"/><path d="M0 0 18.1962 8.8729" stroke="#8E3A00" stroke-width="4.58333" stroke-miterlimit="8" fill="none" fill-rule="evenodd" transform="matrix(-1 0 0 1 2343.7 1382.5)"/><path d="M0 0 48.2849 30.0999" stroke="#8E3A00" stroke-width="4.58333" stroke-miterlimit="8" fill="none" fill-rule="evenodd" transform="matrix(-1 0 0 1 2302.79 1402.5)"/><path d="M2237.21 1428.56 2195.5 1398.5" stroke="#8E3A00" stroke-width="4.58333" stroke-miterlimit="8" fill="none" fill-rule="evenodd"/><path d="M0 0 0.874081 99.2292" stroke="#8E3A00" stroke-width="4.58333" stroke-miterlimit="8" fill="none" fill-rule="evenodd" transform="matrix(-1 0 0 1 2314.37 1409.5)"/><path d="M2313.5 1534.5 2317.11 1592.66" stroke="#8E3A00" stroke-width="4.58333" stroke-miterlimit="8" fill="none" fill-rule="evenodd"/><path d="M2316.5 1618.5 2341.92 1676.66" stroke="#8E3A00" stroke-width="4.58333" stroke-miterlimit="8" fill="none" fill-rule="evenodd"/><path d="M2352.5 1386.5 2360.03 1487.46" stroke="#8E3A00" stroke-width="4.58333" stroke-miterlimit="8" fill="none" fill-rule="evenodd"/><path d="M2365.5 1378.5 2391.06 1388.88" stroke="#8E3A00" stroke-width="4.58333" stroke-miterlimit="8" fill="none" fill-rule="evenodd"/><path d="M0 0 0.874081 107.17" stroke="#8E3A00" stroke-width="4.58333" stroke-miterlimit="8" fill="none" fill-rule="evenodd" transform="matrix(-1 0 0 1 2404.37 1402.5)"/><path d="M0 0 3.7623 54.9888" stroke="#8E3A00" stroke-width="4.58333" stroke-miterlimit="8" fill="none" fill-rule="evenodd" transform="matrix(-1 0 0 1 2403.26 1534.5)"/><path d="M2408.5 1611.5 2443.55 1657.8" stroke="#8E3A00" stroke-width="4.58333" stroke-miterlimit="8" fill="none" fill-rule="evenodd"/><path d="M2413.5 1398.5 2437.52 1440.37" stroke="#8E3A00" stroke-width="4.58333" stroke-miterlimit="8" fill="none" fill-rule="evenodd"/><path d="M2449.5 1459.5 2465.47 1512.38" stroke="#8E3A00" stroke-width="4.58333" stroke-miterlimit="8" fill="none" fill-rule="evenodd"/><path d="M0 0 17.3481 13.5569" stroke="#8E3A00" stroke-width="4.58333" stroke-miterlimit="8" fill="none" fill-rule="evenodd" transform="matrix(-1 0 0 1 2330.85 1300.5)"/><path d="M2345.5 1306.5 2355.45 1322.7" stroke="#8E3A00" stroke-width="4.58333" stroke-miterlimit="8" fill="none" fill-rule="evenodd"/><path d="M0 0 13.6872 15.3235" stroke="#8E3A00" stroke-width="4.58333" stroke-miterlimit="8" fill="none" fill-rule="evenodd" transform="matrix(-1 0 0 1 2375.19 1309.5)"/><path d="M2386.5 1309.5 2406.16 1324.38" stroke="#8E3A00" stroke-width="4.58333" stroke-miterlimit="8" fill="none" fill-rule="evenodd"/><path d="M0 0 23.4533 32.0913" stroke="#8E3A00" stroke-width="4.58333" stroke-miterlimit="8" fill="none" fill-rule="evenodd" transform="matrix(-1 0 0 1 2362.95 1259.5)"/><path d="M2363.5 1259.5 2381.29 1294.9" stroke="#8E3A00" stroke-width="4.58333" stroke-miterlimit="8" fill="none" fill-rule="evenodd"/><path d="M0 0 3.11125 21.9238" stroke="#8E3A00" stroke-width="4.58333" stroke-miterlimit="8" fill="none" fill-rule="evenodd" transform="matrix(-1 0 0 1 2355.61 1338.5)"/><path d="M0 0 24.8308 12.9221" stroke="#8E3A00" stroke-width="4.58333" stroke-miterlimit="8" fill="none" fill-rule="evenodd" transform="matrix(1 0 0 -1 2325.5 1521.42)"/><path d="M2390.25 1521.42 2368.5 1508.5" stroke="#8E3A00" stroke-width="4.58333" stroke-miterlimit="8" fill="none" fill-rule="evenodd"/><path d="M1610 1061C1610 1053.82 1615.6 1048 1622.5 1048 1629.4 1048 1635 1053.82 1635 1061 1635 1068.18 1629.4 1074 1622.5 1074 1615.6 1074 1610 1068.18 1610 1061Z" fill="#0075B0" fill-rule="evenodd" fill-opacity="0.341176"/><path d="M1532 1111C1532 1103.82 1537.82 1098 1545 1098 1552.18 1098 1558 1103.82 1558 1111 1558 1118.18 1552.18 1124 1545 1124 1537.82 1124 1532 1118.18 1532 1111Z" fill="#0075B0" fill-rule="evenodd" fill-opacity="0.341176"/><path d="M1657 1108.5C1657 1101.6 1662.82 1096 1670 1096 1677.18 1096 1683 1101.6 1683 1108.5 1683 1115.4 1677.18 1121 1670 1121 1662.82 1121 1657 1115.4 1657 1108.5Z" fill="#0075B0" fill-rule="evenodd" fill-opacity="0.341176"/><path d="M1486 1231C1486 1223.82 1491.82 1218 1499 1218 1506.18 1218 1512 1223.82 1512 1231 1512 1238.18 1506.18 1244 1499 1244 1491.82 1244 1486 1238.18 1486 1231Z" fill="#0075B0" fill-rule="evenodd" fill-opacity="0.341176"/><path d="M1693 1233.5C1693 1226.6 1698.82 1221 1706 1221 1713.18 1221 1719 1226.6 1719 1233.5 1719 1240.4 1713.18 1246 1706 1246 1698.82 1246 1693 1240.4 1693 1233.5Z" fill="#0075B0" fill-rule="evenodd" fill-opacity="0.341176"/><path d="M1697 1168.5C1697 1161.6 1702.6 1156 1709.5 1156 1716.4 1156 1722 1161.6 1722 1168.5 1722 1175.4 1716.4 1181 1709.5 1181 1702.6 1181 1697 1175.4 1697 1168.5Z" fill="#0075B0" fill-rule="evenodd" fill-opacity="0.341176"/><path d="M1813 1112C1813 1104.82 1818.6 1099 1825.5 1099 1832.4 1099 1838 1104.82 1838 1112 1838 1119.18 1832.4 1125 1825.5 1125 1818.6 1125 1813 1119.18 1813 1112Z" fill="#0075B0" fill-rule="evenodd" fill-opacity="0.341176"/><path d="M1596 937.5C1596 930.596 1601.6 925 1608.5 925 1615.4 925 1621 930.596 1621 937.5 1621 944.404 1615.4 950 1608.5 950 1601.6 950 1596 944.404 1596 937.5Z" fill="#0075B0" fill-rule="evenodd" fill-opacity="0.341176"/><path d="M1600 1293.5C1600 1286.6 1605.6 1281 1612.5 1281 1619.4 1281 1625 1286.6 1625 1293.5 1625 1300.4 1619.4 1306 1612.5 1306 1605.6 1306 1600 1300.4 1600 1293.5Z" fill="#0075B0" fill-rule="evenodd" fill-opacity="0.341176"/><path d="M1537 1352.5C1537 1345.6 1542.6 1340 1549.5 1340 1556.4 1340 1562 1345.6 1562 1352.5 1562 1359.4 1556.4 1365 1549.5 1365 1542.6 1365 1537 1359.4 1537 1352.5Z" fill="#0075B0" fill-rule="evenodd" fill-opacity="0.341176"/><path d="M1661 1319.5C1661 1312.6 1666.6 1307 1673.5 1307 1680.4 1307 1686 1312.6 1686 1319.5 1686 1326.4 1680.4 1332 1673.5 1332 1666.6 1332 1661 1326.4 1661 1319.5Z" fill="#0075B0" fill-rule="evenodd" fill-opacity="0.341176"/><path d="M1733 1375C1733 1367.82 1738.82 1362 1746 1362 1753.18 1362 1759 1367.82 1759 1375 1759 1382.18 1753.18 1388 1746 1388 1738.82 1388 1733 1382.18 1733 1375Z" fill="#0075B0" fill-rule="evenodd" fill-opacity="0.341176"/><path d="M1788 1355.5C1788 1348.6 1793.82 1343 1801 1343 1808.18 1343 1814 1348.6 1814 1355.5 1814 1362.4 1808.18 1368 1801 1368 1793.82 1368 1788 1362.4 1788 1355.5Z" fill="#0075B0" fill-rule="evenodd" fill-opacity="0.341176"/><path d="M1738 1579.5C1738 1572.6 1743.82 1567 1751 1567 1758.18 1567 1764 1572.6 1764 1579.5 1764 1586.4 1758.18 1592 1751 1592 1743.82 1592 1738 1586.4 1738 1579.5Z" fill="#0075B0" fill-rule="evenodd" fill-opacity="0.341176"/><path d="M1814 1579.5C1814 1572.6 1819.6 1567 1826.5 1567 1833.4 1567 1839 1572.6 1839 1579.5 1839 1586.4 1833.4 1592 1826.5 1592 1819.6 1592 1814 1586.4 1814 1579.5Z" fill="#0075B0" fill-rule="evenodd" fill-opacity="0.341176"/><path d="M0 0 8.50407 33.4031" stroke="#1E386B" stroke-width="4.58333" stroke-miterlimit="8" stroke-opacity="0.188235" fill="none" fill-rule="evenodd" transform="matrix(-1 0 0 1 1609 950.5)"/><path d="M0 0 59.2939 31.7325" stroke="#1E386B" stroke-width="4.58333" stroke-miterlimit="8" stroke-opacity="0.188235" fill="none" fill-rule="evenodd" transform="matrix(-1 0 0 1 1613.79 1070.5)"/><path d="M1631.5 1070.5 1661.14 1099.68" stroke="#1E386B" stroke-width="4.58333" stroke-miterlimit="8" stroke-opacity="0.188235" fill="none" fill-rule="evenodd"/><path d="M0 0 37.1402 98.555" stroke="#1E386B" stroke-width="4.58333" stroke-miterlimit="8" stroke-opacity="0.188235" fill="none" fill-rule="evenodd" transform="matrix(-1 0 0 1 1536.64 1120.5)"/><path d="M1679.5 1117.5 1701.11 1159.77" stroke="#1E386B" stroke-width="4.58333" stroke-miterlimit="8" stroke-opacity="0.188235" fill="none" fill-rule="evenodd"/><path d="M1693.93 1233.7 1512.5 1231.5" stroke="#1E386B" stroke-width="4.58333" stroke-miterlimit="8" stroke-opacity="0.188235" fill="none" fill-rule="evenodd"/><path d="M1549.96 1340.61 1545.5 1124.5" stroke="#1E386B" stroke-width="4.58333" stroke-miterlimit="8" stroke-opacity="0.188235" fill="none" fill-rule="evenodd"/><path d="M1674.11 1307.47 1670.5 1121.5" stroke="#1E386B" stroke-width="4.58333" stroke-miterlimit="8" stroke-opacity="0.188235" fill="none" fill-rule="evenodd"/><path d="M0 0 9.72641 206.767" stroke="#1E386B" stroke-width="4.58333" stroke-miterlimit="8" stroke-opacity="0.188235" fill="none" fill-rule="evenodd" transform="matrix(1 0 0 -1 1613.5 1281.27)"/><path d="M0 0 45.1097 41.0732" stroke="#1E386B" stroke-width="4.58333" stroke-miterlimit="8" stroke-opacity="0.188235" fill="none" fill-rule="evenodd" transform="matrix(1 0 0 -1 1559.5 1343.57)"/><path d="M1665.48 1310.88 1622.5 1302.5" stroke="#1E386B" stroke-width="4.58333" stroke-miterlimit="8" stroke-opacity="0.188235" fill="none" fill-rule="evenodd"/><path d="M0 0 94.3405 47.5313" stroke="#1E386B" stroke-width="4.58333" stroke-miterlimit="8" stroke-opacity="0.188235" fill="none" fill-rule="evenodd" transform="matrix(-1 0 0 1 1816.84 1121.5)"/><path d="M1562.5 1352.5 1733.51 1374.99" stroke="#1E386B" stroke-width="4.58333" stroke-miterlimit="8" stroke-opacity="0.188235" fill="none" fill-rule="evenodd"/><path d="M1751.34 1567.8 1746.5 1388.5" stroke="#1E386B" stroke-width="4.58333" stroke-miterlimit="8" stroke-opacity="0.188235" fill="none" fill-rule="evenodd"/><path d="M1686.5 1320.5 1788.31 1356.41" stroke="#1E386B" stroke-width="4.58333" stroke-miterlimit="8" stroke-opacity="0.188235" fill="none" fill-rule="evenodd"/><path d="M1801.5 1368.5 1826.92 1567.07" stroke="#1E386B" stroke-width="4.58333" stroke-miterlimit="8" stroke-opacity="0.188235" fill="none" fill-rule="evenodd"/><path d="M1608 992C1608 996.418 1604.42 1000 1600 1000 1595.58 1000 1592 996.418 1592 992 1592 987.582 1595.58 984 1600 984 1604.42 984 1608 987.582 1608 992Z" fill="#0075B0" fill-rule="evenodd" fill-opacity="0.341176"/><path d="M1651 985.5C1651 990.195 1647.19 994 1642.5 994 1637.81 994 1634 990.195 1634 985.5 1634 980.806 1637.81 977 1642.5 977 1647.19 977 1651 980.806 1651 985.5Z" fill="#0075B0" fill-rule="evenodd" fill-opacity="0.341176"/><path d="M1686 1005.5C1686 1010.19 1682.42 1014 1678 1014 1673.58 1014 1670 1010.19 1670 1005.5 1670 1000.81 1673.58 997 1678 997 1682.42 997 1686 1000.81 1686 1005.5Z" fill="#0075B0" fill-rule="evenodd" fill-opacity="0.341176"/><path d="M1631 1014.5C1631 1019.19 1627.19 1023 1622.5 1023 1617.81 1023 1614 1019.19 1614 1014.5 1614 1009.81 1617.81 1006 1622.5 1006 1627.19 1006 1631 1009.81 1631 1014.5Z" fill="#0075B0" fill-rule="evenodd" fill-opacity="0.341176"/><path d="M1571 1021.5C1571 1026.19 1567.19 1030 1562.5 1030 1557.81 1030 1554 1026.19 1554 1021.5 1554 1016.81 1557.81 1013 1562.5 1013 1567.19 1013 1571 1016.81 1571 1021.5Z" fill="#0075B0" fill-rule="evenodd" fill-opacity="0.341176"/><path d="M0 0 25.8186 17.7599" stroke="#1E386B" stroke-width="4.58333" stroke-miterlimit="8" stroke-opacity="0.188235" fill="none" fill-rule="evenodd" transform="matrix(-1 0 0 1 1594.32 998.5)"/><path d="M1606.5 998.5 1617.22 1009.16" stroke="#1E386B" stroke-width="4.58333" stroke-miterlimit="8" stroke-opacity="0.188235" fill="none" fill-rule="evenodd"/><path d="M0 0 8.61306 17.425" stroke="#1E386B" stroke-width="4.58333" stroke-miterlimit="8" stroke-opacity="0.188235" fill="none" fill-rule="evenodd" transform="matrix(-1 0 0 1 1637.11 991.5)"/><path d="M1649.5 991.5 1673.05 999.938" stroke="#1E386B" stroke-width="4.58333" stroke-miterlimit="8" stroke-opacity="0.188235" fill="none" fill-rule="evenodd"/><path d="M0 0 0.0119094 25.6266" stroke="#1E386B" stroke-width="4.58333" stroke-miterlimit="8" stroke-opacity="0.188235" fill="none" fill-rule="evenodd" transform="matrix(-1 0 0 1 1622.51 1023.5)"/><path d="M1608.5 950.5 1636.92 979.564" stroke="#1E386B" stroke-width="4.58333" stroke-miterlimit="8" stroke-opacity="0.188235" fill="none" fill-rule="evenodd"/><path d="M1958.25 1715.61 1740.22 1635.55 1741.8 1631.25 1959.83 1711.31ZM1740.58 1647.89 1719.5 1625.5 1750.05 1622.07Z" fill="url(#fill0)"/><text font-family="Times New Roman,Times New Roman_MSFontService,sans-serif" font-weight="400" font-size="50" transform="matrix(0.936159 0.351578 -0.351578 0.936159 1694.53 1694)">Temporal</text><path d="M0.877549-2.11699 169.855 67.9286 168.1 72.1626-0.877549 2.11699ZM170.008 55.5885 190.147 78.8211 159.478 80.9924Z" fill="url(#fill1)" transform="matrix(1 0 0 -1 2491.5 1721.32)"/><text font-family="Times New Roman,Times New Roman_MSFontService,sans-serif" font-weight="400" font-size="50" transform="matrix(0.91807 -0.396417 0.396417 0.91807 2489.13 1786)">Temporal</text><text font-family="Times New Roman,Times New Roman_MSFontService,sans-serif" font-weight="400" font-size="83" transform="matrix(1 0 0 1 4740.02 2803)">[</text><text font-family="Times New Roman,Times New Roman_MSFontService,sans-serif" font-weight="400" font-size="83" transform="matrix(1 0 0 1 4767.52 2803)">RAD</text><text font-family="Times New Roman,Times New Roman_MSFontService,sans-serif" font-weight="400" font-size="83" transform="matrix(1 0 0 1 4962.31 2803)">Label]</text><path d="M4575.02 2766.84 4668.21 2767.29 4668.16 2777.6 4574.98 2777.16ZM4663.1 2756.96 4693.96 2772.57 4662.95 2787.89Z"/><rect x="3957" y="738" width="113" height="1450" stroke="#000000" stroke-width="10.3125" stroke-miterlimit="8" fill="#D0CECE"/><text font-family="Times New Roman,Times New Roman_MSFontService,sans-serif" font-weight="400" font-size="83" transform="matrix(6.12323e-17 1 -1 6.12323e-17 3984.83 1047)">Audio</text><text font-family="Times New Roman,Times New Roman_MSFontService,sans-serif" font-weight="400" font-size="83" transform="matrix(6.12323e-17 1 -1 6.12323e-17 3984.83 1253)">-</text><text font-family="Times New Roman,Times New Roman_MSFontService,sans-serif" font-weight="400" font-size="83" transform="matrix(6.12323e-17 1 -1 6.12323e-17 3984.83 1281)">Visual </text><text font-family="Times New Roman,Times New Roman_MSFontService,sans-serif" font-weight="400" font-size="83" transform="matrix(6.12323e-17 1 -1 6.12323e-17 3984.83 1517)">Integration</text><text font-family="Times New Roman,Times New Roman_MSFontService,sans-serif" font-weight="700" font-size="83" transform="matrix(1 0 0 1 65.5113 668)">(a) </text><text font-family="Times New Roman,Times New Roman_MSFontService,sans-serif" font-weight="700" font-size="83" transform="matrix(1 0 0 1 182.386 668)">Learning from Individual Interaction Sessions</text><text font-family="Times New Roman,Times New Roman_MSFontService,sans-serif" font-weight="700" font-size="83" transform="matrix(1 0 0 1 1812.56 668)">:</text><path d="M63.5001 2250.5 5175.5 2250.5" stroke="#000000" stroke-width="6.875" stroke-miterlimit="8" stroke-dasharray="27.5 20.625" fill="none" fill-rule="evenodd"/><text font-family="Times New Roman,Times New Roman_MSFontService,sans-serif" font-weight="700" font-size="83" transform="matrix(1 0 0 1 65.5113 2370)">(b) </text><text font-family="Times New Roman,Times New Roman_MSFontService,sans-serif" font-weight="700" font-size="83" transform="matrix(1 0 0 1 186.97 2370)">Combining Information Across Multiple Sessions</text><text font-family="Times New Roman,Times New Roman_MSFontService,sans-serif" font-weight="700" font-size="83" transform="matrix(1 0 0 1 1918 2370)">:</text><rect x="3078" y="738" width="113" height="1082" stroke="#000000" stroke-width="10.3125" stroke-miterlimit="8" fill="#8FAADC"/><text font-family="Times New Roman,Times New Roman_MSFontService,sans-serif" font-weight="400" font-size="83" transform="matrix(6.12323e-17 1 -1 6.12323e-17 3105.83 1001)">Body Movement</text><rect x="3637" y="738" width="113" height="1082" stroke="#000000" stroke-width="10.3125" stroke-miterlimit="8" fill="#8FAADC"/><text font-family="Times New Roman,Times New Roman_MSFontService,sans-serif" font-weight="400" font-size="83" transform="matrix(6.12323e-17 1 -1 6.12323e-17 3665.14 934)">Feature Contribution</text><path d="M0.00452688-5.15625 194.144-4.9858 194.135 5.32669-0.00452688 5.15625ZM188.997-15.3028 219.921 0.193077 188.97 15.6347Z" transform="matrix(1 0 0 -1 2858 1279.19)"/><path d="M3750 1273.84 3931.3 1273.84 3931.3 1284.16 3750 1284.16ZM3926.14 1263.53 3957.08 1279 3926.14 1294.47Z"/><path d="M4070.01 1457.84 4166.64 1458.1 4166.62 1468.41 4069.99 1468.16ZM4161.52 1447.77 4192.41 1463.32 4161.43 1478.71Z"/><path d="M1179 2792.84 1372.28 2792.84 1372.28 2803.16 1179 2803.16ZM1367.13 2782.53 1398.07 2798 1367.13 2813.47Z"/><path d="M3807.04 2787.84 3930.55 2788.81 3930.46 2799.13 3806.96 2798.16ZM3925.47 2778.46 3956.29 2794.17 3925.23 2809.4Z"/><text font-family="Times New Roman,Times New Roman_MSFontService,sans-serif" font-weight="400" font-size="83" transform="matrix(1 0 0 1 182.035 3045)">WPPSI</text><text font-family="Times New Roman,Times New Roman_MSFontService,sans-serif" font-weight="400" font-size="83" transform="matrix(1 0 0 1 445.577 3045)">Session</text><text font-family="Times New Roman,Times New Roman_MSFontService,sans-serif" font-weight="400" font-size="83" transform="matrix(1 0 0 1 716.795 3045)">Video/Audio</text><path d="M0.0394217-5.1561 193.325-3.67831 193.246 6.63389-0.0394217 5.1561ZM188.248-14.0299 219.066 1.6749 188.011 16.9067Z" transform="matrix(1 0 0 -1 1179 3014.67)"/><rect x="2998" y="2452" width="809" height="159" stroke="#000000" stroke-width="10.3125" stroke-linecap="square" stroke-miterlimit="8" stroke-dasharray="30.9375 10.3125" fill="#FFF2CC"/><text font-family="Times New Roman,Times New Roman_MSFontService,sans-serif" font-weight="400" font-size="83" transform="matrix(1 -2.44929e-16 2.44929e-16 1 3158.19 2560)">Play Summary</text><rect x="2998" y="2714" width="809" height="159" stroke="#000000" stroke-width="10.3125" stroke-linecap="square" stroke-miterlimit="8" stroke-dasharray="30.9375 10.3125" fill="#FFF2CC"/><text font-family="Times New Roman,Times New Roman_MSFontService,sans-serif" font-weight="400" font-size="83" transform="matrix(1 -2.44929e-16 2.44929e-16 1 3126.11 2822)">Lunch Summary</text><rect x="2998" y="2934" width="809" height="159" stroke="#000000" stroke-width="10.3125" stroke-linecap="square" stroke-miterlimit="8" stroke-dasharray="30.9375 10.3125" fill="#FFF2CC"/><text font-family="Times New Roman,Times New Roman_MSFontService,sans-serif" font-weight="400" font-size="83" transform="matrix(1 -2.44929e-16 2.44929e-16 1 3110.06 3042)">WPPSI Summary</text><path d="M0.0404979-5.15609 123.545-4.18604 123.464 6.12614-0.0404979 5.15609ZM118.47-14.5387 149.285 1.17254 118.227 16.3978Z" transform="matrix(1 0 0 -1 3807 3013.17)"/><path d="M2854 2525.84 2971.69 2525.84 2971.69 2536.16 2854 2536.16ZM2966.53 2515.53 2997.47 2531 2966.53 2546.47Z"/><path d="M2858 2787.84 2971.99 2787.84 2971.99 2798.16 2858 2798.16ZM2966.83 2777.53 2997.77 2793 2966.83 2808.47Z"/><path d="M2858 3007.84 2971.99 3007.84 2971.99 3018.16 2858 3018.16ZM2966.83 2997.53 2997.77 3013 2966.83 3028.47Z"/><rect x="4687" y="1345" width="471" height="235" stroke="#000000" stroke-width="10.3125" stroke-linecap="square" stroke-miterlimit="8" stroke-dasharray="30.9375 10.3125" fill="#FFF2CC"/><text font-family="Times New Roman,Times New Roman_MSFontService,sans-serif" font-weight="400" font-size="83" transform="matrix(1 -2.44929e-16 2.44929e-16 1 4796.44 1443)">Session </text><text font-family="Times New Roman,Times New Roman_MSFontService,sans-serif" font-weight="400" font-size="83" transform="matrix(1 -2.44929e-16 2.44929e-16 1 4762.07 1540)">Summary</text><rect x="3363" y="738" width="112" height="1082" stroke="#000000" stroke-width="10.3125" stroke-miterlimit="8" fill="#8FAADC"/><text font-family="Times New Roman,Times New Roman_MSFontService,sans-serif" font-weight="400" font-size="83" transform="matrix(6.12323e-17 1 -1 6.12323e-17 3390.41 948)">Behavioral Features</text><path d="M3191 1273.84 3337.19 1273.84 3337.19 1284.16 3191 1284.16ZM3332.04 1263.53 3362.98 1279 3332.04 1294.47Z"/><path d="M3475.01 1273.84 3611.36 1274.01 3611.35 1284.32 3474.99 1284.16ZM3606.21 1263.69 3637.13 1279.19 3606.18 1294.62Z"/><text font-family="Times New Roman,Times New Roman_MSFontService,sans-serif" font-weight="400" font-size="73" transform="matrix(1 0 0 1 2709.98 685)">(From Movement </text><text font-family="Times New Roman,Times New Roman_MSFontService,sans-serif" font-weight="400" font-size="73" transform="matrix(1 0 0 1 3249.09 685)">→ </text><text font-family="Times New Roman,Times New Roman_MSFontService,sans-serif" font-weight="400" font-size="73" transform="matrix(1 0 0 1 3340.76 685)">Behavior </text><text font-family="Times New Roman,Times New Roman_MSFontService,sans-serif" font-weight="400" font-size="73" transform="matrix(1 0 0 1 3628.36 685)">→ </text><text font-family="Times New Roman,Times New Roman_MSFontService,sans-serif" font-weight="400" font-size="73" transform="matrix(1 0 0 1 3715.98 685)">AI Explanation)</text></g></svg>